{
.appVersion = "3151";
.formatVersion = 3;
DisplayStrings = (
CDEF,
F,
ABCDH,
"xml version1.0 encodingUTF-8svg id1 xmlnshttpwww.w3.orgviewBox0 0 140.67 161.03path dm34.18,43.35c-1.12-1.98-3.47-4.26-3.21-6.2.29-2.21,3-4.05,4.48-6.18,1.05-1.5,1.82-3.2,2.65-4.84.15-.3-.14-.8-.02-1.13,1.76-4.98,3.8-9.88,5.28-14.95,1.73-5.89,13.35-11.51,19.59-9.71,2.96.85,6.51.96,9.49.2,9.53-2.45,20.13,6.47,22.5,13.9,2.61,8.19,1.02,15.46-2.35,23.49-2.88,6.86-2.55,15.27-2.73,23.02-.44,19.68-.35,39.37-.53,59.06-.01,1.56-.42,3.12-.93,6.6,2.27-2.52,3.34-3.72,5.17-5.75,5.04.68,11.61,1.76,18.22,2.34,2.76.24,5.61-.87,8.42-.84,7.4.07,14.93,6.25,16.78,13.46.17.68.41,1.34.66,2.14.39-.75.71-1.37,1.03-2,.66.29,1.33.59,1.99.88-2.36,5.71-3.36,12.75-7.37,16.84-8.39,8.56-20.65,9.65-30.49,3.17-13.73-9.04-28.4-13.21-44.56-10.88-5.37.77-10.62,3.28-15.61,5.64-9.65,4.57-18.44,1.81-26.02-3.79-6.11-4.51-13.07-10.05-15.64-16.69-3.99-10.29,4.89-21.6,15.84-22.19,8.14-.44,16.64-.6,24.42,1.35,3.89.98,6.18,7.38,9.85,10.55,2.68,2.31,6.45,3.34,9.73,4.94.71-2.23,1.97-4.44,2.05-6.7.93-24.82,1.7-49.64,2.43-74.47.03-.91-.89-2.66-1.25-2.63-1.36.12-3.07.43-3.93,1.35-2.59,2.78-4.46,6.39-7.41,8.61-1.27.96-4.58-.48-6.84-1.2-4.21-1.34-8.36-2.91-12.47-4.55-.38-.15-.32-1.53-.34-2.34,0-.14.63-.29,1.13-.51Z1234567890",
"12",
"123456",
"5",
"56",

glyphs = (
{
glyphname = A;
lastChange = "2023-04-14 03:45:36 +0000";
layers = (
{
layerId = m01;
shapes = (
{
closed = 1;
nodes = (
(396,599,o),
(203,600,o),
(200,600,c),
(200,570,o),
(200,344,o),
(200,300,c),
(217,300,o),
(257,300,o),
(260,300,c),
(250,300,o),
(363,300,o),
(370,300,c),
(383,300,o),
(383,300,o),
(400,300,c),
(400,600,l)
);
},
{
closed = 1;
nodes = (
(493,0,o),
(472,0,o),
(470,0,c),
(463,0,o),
(470,0,o),
(463,0,c),
(460,0,o),
(450,0,o),
(443,0,c),
(430,0,o),
(433,0,o),
(420,0,c),
(373,0,o),
(410,0,o),
(400,0,c),
(400,3,o),
(400,38,o),
(400,37,c),
(400,41,o),
(400,54,o),
(400,57,c),
(400,64,o),
(400,33,o),
(400,37,c),
(400,83,o),
(400,127,o),
(400,133,c),
(400,140,o),
(400,193,o),
(400,200,c),
(390,200,o),
(337,200,o),
(327,200,c),
(317,200,o),
(313,200,o),
(300,200,c),
(287,200,o),
(217,200,o),
(200,200,c),
(200,110,l),
(200,93,o),
(200,20,o),
(200,93,c),
(200,90,o),
(200,90,o),
(200,80,c),
(200,78,o),
(200,57,o),
(200,57,c),
(200,50,o),
(200,13,o),
(200,0,c),
(170,0,o),
(123,0,o),
(113,0,c),
(103,0,o),
(103,0,o),
(100,0,c),
(100,7,o),
(100,10,o),
(100,13,c),
(100,17,o),
(100,23,o),
(100,33,c),
(100,37,o),
(100,47,o),
(100,47,c),
(100,70,l),
(100,73,o),
(100,83,o),
(100,90,c),
(100,108,o),
(100,97,o),
(100,113,c),
(100,120,o),
(100,160,o),
(100,160,c),
(100,170,o),
(100,163,o),
(100,173,c),
(100,177,o),
(100,177,o),
(100,183,c),
(100,190,o),
(100,197,o),
(100,207,c),
(100,227,l),
(100,233,o),
(100,237,o),
(100,243,c),
(100,270,l),
(100,327,l),
(100,367,l),
(100,423,l),
(100,467,l),
(100,468,o),
(100,500,o),
(100,500,c),
(100,520,o),
(100,590,o),
(100,600,c),
(107,600,o),
(120,600,o),
(127,600,c),
(150,600,l),
(200,600,l),
(200,667,o),
(200,683,o),
(200,700,c),
(203,700,o),
(283,700,o),
(300,700,c),
(303,700,o),
(380,700,o),
(400,700,c),
(400,693,o),
(400,660,o),
(400,650,c),
(400,620,l),
(400,600,l),
(393,600,o),
(526,600,o),
(500,600,c),
(500,540,l),
(500,516,o),
(500,510,o),
(500,473,c),
(500,456,o),
(500,424,o),
(500,417,c),
(500,407,o),
(500,313,o),
(500,307,cs),
(500,260,o),
(500,257,o),
(500,233,c),
(500,217,l),
(500,203,l),
(500,173,l),
(500,133,l),
(500,125,o),
(500,123,o),
(500,117,c),
(500,110,o),
(500,73,o),
(500,67,c),
(500,37,o),
(500,33,o),
(500,17,c),
(500,6,o),
(500,10,o),
(500,0,c)
);
}
);
width = 600;
},
{
hints = (
{
horizontal = 1;
place = (-22, 680);
place = (-22, 680);
type = Stem;
},
{
place = (293, 18);
place = (293, 18);
type = Stem;
}
);
layerId = m002;
shapes = (
{
closed = 1;
nodes = (
(289,342,o),
(290,339,o),
(290,343,c),
(286,336,o),
(280,307,o),
(273,293,c),
(274,289,o),
(275,288,o),
(277,293,c),
(278,291,o),
(301,292,o),
(307,293,c),
(318,295,o),
(304,311,o),
(297,337,c),
(293,347,l)
);
},
{
closed = 1;
nodes = (
(566,41,o),
(565,40,o),
(563,43,c),
(557,37,o),
(554,33,o),
(550,30,c),
(549,29,o),
(532,18,o),
(533,20,c),
(520,16,o),
(507,3,o),
(483,13,c),
(437,13,o),
(413,33,o),
(407,47,c),
(405,43,o),
(403,44,o),
(403,47,c),
(400,44,o),
(399,45,o),
(403,50,c),
(398,52,o),
(394,58,o),
(390,67,c),
(367,97,o),
(362,182,o),
(363,190,c),
(360,186,o),
(354,206,o),
(353,217,c),
(349,221,o),
(334,199,o),
(327,207,c),
(321,198,o),
(306,191,o),
(300,200,c),
(293,193,o),
(260,196,o),
(260,203,c),
(240,203,l),
(233,186,o),
(232,147,o),
(223,137,c),
(225,130,o),
(221,116,o),
(220,113,c),
(220,108,o),
(220,107,o),
(220,110,c),
(217,103,o),
(210,67,o),
(197,63,c),
(167,40,o),
(118,38,o),
(113,43,c),
(107,38,o),
(103,39,o),
(103,47,c),
(92,43,o),
(67,54,o),
(63,60,c),
(60,61,o),
(54,62,o),
(53,67,c),
(48,65,o),
(47,67,o),
(43,70,c),
(23,117,l),
(23,116,o),
(20,123,o),
(23,127,c),
(23,141,o),
(24,176,o),
(40,187,c),
(43,183,o),
(67,197,o),
(67,200,c),
(73,201,o),
(77,202,o),
(87,207,c),
(86,206,o),
(95,209,o),
(97,210,c),
(101,206,o),
(105,210,o),
(113,217,c),
(137,220,l),
(141,216,o),
(164,232,o),
(167,240,c),
(183,303,l),
(200,360,l),
(207,390,l),
(227,467,l),
(240,510,l),
(240,508,o),
(240,510,o),
(240,513,c),
(230,517,o),
(180,550,o),
(187,560,c),
(180,560,o),
(170,587,o),
(170,597,c),
(173,613,l),
(177,623,l),
(228,686,o),
(230,677,o),
(260,690,c),
(259,689,o),
(288,686,o),
(303,690,c),
(304,688,o),
(308,688,o),
(327,683,c),
(354,672,o),
(369,649,o),
(380,650,c),
(387,643,l),
(397,623,l),
(404,613,o),
(400,589,o),
(387,560,c),
(370,537,l),
(364,527,o),
(363,519,o),
(370,513,c),
(369,507,o),
(370,503,o),
(373,500,c),
(376,490,o),
(379,483,o),
(383,480,cs),
(400,429,o),
(402,403,o),
(413,387,c),
(427,350,l),
(440,310,l),
(457,263,l),
(477,207,l),
(477,195,o),
(520,172,o),
(527,173,c),
(533,170,o),
(567,156,o),
(570,160,c),
(607,134,o),
(589,86,o),
(583,73,c),
(583,59,o),
(580,51,o),
(570,47,c)
);
}
);
width = 623;
}
);
unicode = 65;
},
{
glyphname = B;
lastChange = "2023-03-29 07:49:13 +0000";
layers = (
{
layerId = m01;
shapes = (
{
closed = 1;
nodes = (
(400,427,o),
(400,587,o),
(400,600,c),
(380,600,o),
(230,600,o),
(200,600,c),
(200,577,o),
(200,523,o),
(200,500,c),
(200,440,o),
(200,360,o),
(200,300,c),
(200,260,o),
(201,235,o),
(200,200,c),
(200,167,o),
(200,127,o),
(200,100,c),
(297,100,o),
(340,100,o),
(400,100,c),
(400,137,o),
(400,273,o),
(400,300,c),
(393,300,o),
(320,300,o),
(300,300,c),
(300,310,o),
(300,373,o),
(300,400,c),
(327,400,o),
(363,400,o),
(400,400,c)
);
},
{
closed = 1;
nodes = (
(500,517,o),
(500,510,o),
(500,507,c),
(500,503,o),
(500,503,o),
(500,500,c),
(500,447,o),
(500,437,o),
(500,400,c),
(473,400,o),
(427,400,o),
(400,400,c),
(400,353,o),
(400,327,o),
(400,300,c),
(437,300,o),
(473,300,o),
(500,300,c),
(500,270,o),
(500,133,o),
(500,100,c),
(400,100,o),
(440,100,o),
(400,100,c),
(400,67,o),
(400,20,o),
(400,0,c),
(347,0,o),
(127,0,o),
(100,0,c),
(97,27,o),
(100,137,o),
(100,167,c),
(100,173,o),
(100,180,o),
(100,187,c),
(100,193,o),
(100,197,o),
(100,203,c),
(100,473,l),
(100,480,o),
(100,500,o),
(100,517,cs),
(100,571,o),
(100,653,o),
(100,700,c),
(147,700,o),
(187,700,o),
(243,700,c),
(257,700,o),
(263,700,o),
(270,700,c),
(267,700,o),
(286,700,o),
(287,700,c),
(310,700,o),
(377,700,o),
(400,700,c),
(400,677,o),
(400,617,o),
(400,600,c),
(427,600,o),
(480,600,o),
(500,600,c),
(500,590,o),
(500,533,o),
(500,520,c)
);
}
);
width = 600;
},
{
layerId = m002;
shapes = (
{
closed = 1;
nodes = (
(433,462,o),
(436,511,o),
(417,530,cs),
(380,567,o),
(314,572,o),
(290,540,cs),
(278,524,o),
(276,456,o),
(273,437,c),
(269,380,o),
(269,384,o),
(263,327,c),
(262,289,o),
(261,252,o),
(260,217,c),
(257,189,o),
(255,163,o),
(253,137,c),
(350,147,o),
(413,142,o),
(437,233,cs),
(446,268,o),
(427,283,o),
(397,307,cs),
(390,313,o),
(355,318,o),
(327,330,cs),
(315,335,o),
(313,347,o),
(300,360,c),
(290,380,o),
(380,423,o),
(403,440,cs)
);
},
{
closed = 1;
nodes = (
(518,515,o),
(518,514,o),
(517,513,c),
(519,511,o),
(520,510,o),
(523,507,c),
(518,455,o),
(494,411,o),
(460,380,c),
(484,360,o),
(514,340,o),
(533,317,cs),
(560,283,o),
(562,256,o),
(553,233,cs),
(543,207,o),
(530,187,o),
(520,173,cs),
(498,143,o),
(482,132,o),
(433,100,cs),
(387,70,o),
(358,65,o),
(250,63,c),
(226,38,o),
(186,-13,o),
(133,3,cs),
(94,15,o),
(58,49,o),
(50,77,cs),
(43,103,o),
(53,157,o),
(87,173,c),
(86,174,o),
(102,180,o),
(107,183,c),
(123,186,o),
(137,194,o),
(163,203,c),
(167,470,l),
(140,457,o),
(89,475,o),
(73,500,cs),
(44,546,o),
(55,594,o),
(90,630,cs),
(129,670,o),
(193,675,o),
(243,650,cs),
(251,646,o),
(264,635,o),
(280,627,c),
(277,627,o),
(276,630,o),
(277,630,c),
(299,629,o),
(337,629,o),
(360,623,c),
(399,615,o),
(425,606,o),
(463,590,c),
(480,583,o),
(496,567,o),
(510,553,c),
(516,544,o),
(516,529,o),
(520,517,c)
);
}
);
width = 600;
}
);
unicode = 66;
},
{
glyphname = C;
lastChange = "2023-04-14 01:49:53 +0000";
layers = (
{
layerId = m01;
shapes = (
{
closed = 1;
nodes = (
(350,100,o),
(377,100,o),
(400,100,c),
(427,100,o),
(473,100,o),
(500,100,c),
(500,73,o),
(500,23,o),
(500,0,c),
(470,0,o),
(270,0,o),
(200,0,c),
(200,20,o),
(200,67,o),
(200,100,c),
(130,100,o),
(160,100,o),
(100,100,c),
(100,160,o),
(100,500,o),
(100,600,c),
(117,600,o),
(170,600,o),
(200,600,c),
(200,663,o),
(200,687,o),
(200,700,c),
(293,700,o),
(313,700,o),
(400,700,c),
(440,700,o),
(470,700,o),
(500,700,c),
(500,677,o),
(500,637,o),
(500,600,c),
(467,600,o),
(360,600,o),
(347,600,c),
(341,599,o),
(207,600,o),
(200,600,c),
(200,530,o),
(200,307,o),
(200,187,c),
(200,163,o),
(200,117,o),
(200,100,c),
(223,100,o),
(250,100,o),
(280,100,c),
(310,100,o),
(317,100,o),
(333,100,c)
);
}
);
width = 600;
},
{
layerId = m002;
shapes = (
{
closed = 1;
nodes = (
(312,187,o),
(362,244,o),
(383,270,c),
(414,299,o),
(496,275,o),
(507,233,c),
(508,208,o),
(491,176,o),
(477,157,c),
(452,113,o),
(424,74,o),
(383,47,cs),
(370,37,o),
(354,30,o),
(337,23,c),
(264,0,o),
(190,-6,o),
(127,40,c),
(47,93,o),
(13,170,o),
(30,270,c),
(65,407,o),
(134,490,o),
(180,533,cs),
(197,550,o),
(211,561,o),
(217,563,c),
(301,616,o),
(301,661,o),
(390,673,c),
(432,680,o),
(466,667,o),
(497,643,c),
(528,611,o),
(523,575,o),
(507,537,c),
(475,469,o),
(407,455,o),
(333,490,c),
(326,489,o),
(304,480,o),
(297,477,cs),
(171,414,o),
(127,299,o),
(143,177,cs),
(147,143,o),
(162,103,o),
(183,93,cs),
(204,80,o),
(238,64,o),
(280,83,cs),
(316,102,o),
(329,126,o),
(347,140,c)
);
}
);
width = 570;
}
);
unicode = 67;
},
{
glyphname = D;
lastChange = "2023-04-14 01:50:26 +0000";
layers = (
{
layerId = m01;
shapes = (
{
closed = 1;
nodes = (
(300,127,l),
(300,133,o),
(300,143,o),
(300,150,c),
(300,163,o),
(300,183,o),
(300,200,c),
(327,200,o),
(367,200,o),
(400,200,c),
(400,240,o),
(400,337,o),
(400,377,c),
(400,390,o),
(400,413,o),
(400,433,c),
(399,446,o),
(400,583,o),
(400,600,c),
(380,600,o),
(350,600,o),
(317,600,c),
(300,600,o),
(210,600,o),
(200,600,c),
(200,577,o),
(200,463,o),
(200,443,c),
(200,407,o),
(200,380,o),
(200,350,c),
(200,297,o),
(200,117,o),
(200,100,c),
(213,100,o),
(283,100,o),
(300,100,c)
);
},
{
closed = 1;
nodes = (
(100,177,l),
(100,187,o),
(100,197,o),
(100,203,c),
(100,223,o),
(100,227,o),
(100,240,c),
(100,253,o),
(100,260,o),
(100,270,c),
(100,287,o),
(100,413,o),
(100,460,c),
(100,480,o),
(100,487,o),
(100,500,c),
(100,520,o),
(100,567,o),
(100,600,c),
(100,620,o),
(100,617,o),
(100,630,c),
(100,640,o),
(100,694,o),
(100,700,c),
(120,700,o),
(183,700,o),
(200,700,c),
(203,700,o),
(213,700,o),
(220,700,c),
(227,700,o),
(223,700,o),
(227,700,c),
(243,700,o),
(263,700,o),
(273,700,c),
(283,700,o),
(303,700,o),
(310,700,c),
(317,700,o),
(330,700,o),
(333,700,c),
(340,700,o),
(377,700,o),
(400,700,c),
(400,693,o),
(400,620,o),
(400,600,c),
(427,600,o),
(483,600,o),
(500,600,c),
(500,587,o),
(500,513,o),
(500,500,c),
(500,470,o),
(500,423,o),
(500,400,c),
(500,343,o),
(500,240,o),
(500,200,c),
(473,200,o),
(417,200,o),
(400,200,c),
(400,173,o),
(400,113,o),
(400,100,c),
(380,100,o),
(317,100,o),
(300,100,c),
(300,90,o),
(300,10,o),
(300,0,c),
(260,0,o),
(233,0,o),
(200,0,c),
(186,-3,o),
(100,0,o),
(100,0,c),
(100,40,o),
(100,70,o),
(100,157,c)
);
}
);
width = 600;
},
{
layerId = m002;
shapes = (
{
closed = 1;
nodes = (
(217,163,l),
(221,161,o),
(228,158,o),
(233,160,c),
(246,169,o),
(263,179,o),
(277,193,c),
(303,218,o),
(330,244,o),
(353,277,c),
(370,305,o),
(384,341,o),
(397,380,c),
(400,395,o),
(395,418,o),
(393,437,c),
(390,450,o),
(384,463,o),
(377,477,c),
(359,501,o),
(330,514,o),
(297,523,c),
(282,530,o),
(257,514,o),
(257,500,c),
(251,479,o),
(246,462,o),
(243,447,c),
(235,412,o),
(226,379,o),
(223,350,c),
(215,304,o),
(214,262,o),
(207,220,c),
(207,207,o),
(206,192,o),
(207,173,c)
);
},
{
closed = 1;
nodes = (
(87,170,ls),
(90,175,o),
(105,187,o),
(107,193,c),
(111,213,o),
(114,229,o),
(117,240,c),
(119,253,o),
(120,262,o),
(123,270,c),
(127,316,o),
(141,416,o),
(153,460,c),
(157,476,o),
(153,487,o),
(143,497,c),
(111,518,o),
(97,554,o),
(107,590,c),
(113,609,o),
(121,626,o),
(127,640,c),
(127,646,o),
(128,646,o),
(133,650,c),
(146,660,o),
(162,673,o),
(177,687,c),
(180,688,o),
(187,687,o),
(197,687,c),
(194,687,o),
(192,693,o),
(197,697,c),
(227,687,o),
(230,685,o),
(243,680,c),
(264,670,o),
(274,656,o),
(283,640,c),
(286,635,o),
(293,634,o),
(297,633,c),
(322,628,o),
(348,626,o),
(373,620,c),
(392,611,o),
(413,601,o),
(427,583,c),
(449,564,o),
(467,540,o),
(487,513,c),
(492,504,o),
(496,488,o),
(503,477,c),
(513,447,o),
(510,422,o),
(507,400,c),
(492,344,o),
(467,299,o),
(437,260,c),
(421,226,o),
(395,195,o),
(367,163,c),
(339,135,o),
(303,111,o),
(267,97,c),
(247,87,o),
(231,81,o),
(217,70,c),
(211,67,o),
(207,58,o),
(203,53,c),
(184,28,o),
(163,9,o),
(133,0,c),
(117,-3,o),
(107,0,o),
(107,0,c),
(37,40,o),
(-6,101,o),
(73,160,cs)
);
}
);
width = 530;
}
);
unicode = 68;
},
{
glyphname = E;
lastChange = "2023-04-12 20:09:26 +0000";
layers = (
{
layerId = m01;
shapes = (
{
closed = 1;
nodes = (
(237,400,o),
(284,399,o),
(287,400,c),
(327,400,o),
(333,400,o),
(363,400,c),
(377,400,o),
(387,400,o),
(400,400,c),
(400,380,o),
(400,366,o),
(400,343,c),
(400,323,o),
(400,320,o),
(400,300,c),
(387,300,o),
(383,300,o),
(373,300,c),
(350,300,o),
(343,300,o),
(320,300,c),
(290,300,o),
(226,300,o),
(200,300,c),
(200,287,o),
(200,230,o),
(200,217,c),
(200,190,o),
(200,117,o),
(200,100,c),
(220,100,o),
(256,100,o),
(280,100,c),
(327,100,o),
(281,100,o),
(317,100,c),
(344,100,o),
(367,100,o),
(400,100,c),
(417,100,o),
(490,100,o),
(500,100,c),
(500,70,o),
(500,10,o),
(500,0,c),
(470,0,o),
(430,0,o),
(400,0,c),
(357,0,o),
(310,0,o),
(270,0,c),
(227,0,o),
(226,0,o),
(200,0,c),
(200,7,o),
(200,83,o),
(200,100,c),
(167,100,o),
(117,100,o),
(100,100,c),
(100,110,o),
(100,193,o),
(100,210,c),
(100,300,o),
(100,380,o),
(100,473,c),
(100,477,o),
(100,590,o),
(100,600,c),
(117,600,o),
(160,600,o),
(200,600,c),
(200,620,o),
(200,677,o),
(200,700,c),
(243,700,o),
(250,700,o),
(267,700,c),
(273,700,o),
(283,700,o),
(287,700,c),
(293,700,o),
(303,700,o),
(310,700,c),
(350,700,o),
(383,700,o),
(420,700,c),
(467,700,o),
(467,700,o),
(500,700,c),
(500,673,o),
(500,620,o),
(500,600,c),
(403,600,o),
(277,600,o),
(200,600,c),
(200,550,o),
(200,454,o),
(200,400,c),
(220,400,o),
(227,400,o),
(237,400,c)
);
}
);
width = 600;
},
{
layerId = m002;
shapes = (
{
closed = 1;
nodes = (
(252,330,o),
(262,326,o),
(267,327,c),
(306,328,o),
(354,347,o),
(383,373,cs),
(398,385,o),
(406,411,o),
(420,420,c),
(453,441,o),
(502,422,o),
(517,400,c),
(534,361,o),
(518,338,o),
(493,327,c),
(479,318,o),
(461,306,o),
(433,303,cs),
(408,298,o),
(374,301,o),
(350,293,c),
(318,281,o),
(281,269,o),
(253,257,c),
(246,245,o),
(239,221,o),
(237,210,cs),
(230,185,o),
(222,167,o),
(223,150,c),
(242,151,o),
(262,152,o),
(287,157,c),
(329,162,o),
(366,168,o),
(407,183,c),
(432,187,o),
(460,201,o),
(493,200,c),
(509,198,o),
(536,198,o),
(547,170,c),
(556,141,o),
(521,122,o),
(507,117,c),
(476,106,o),
(444,121,o),
(417,120,c),
(370,115,o),
(324,104,o),
(283,100,c),
(236,81,o),
(227,44,o),
(203,20,c),
(154,-30,o),
(73,-21,o),
(47,47,cs),
(24,100,o),
(42,128,o),
(97,163,c),
(108,166,o),
(117,188,o),
(123,203,c),
(134,292,o),
(147,383,o),
(163,477,c),
(160,480,o),
(155,492,o),
(153,500,c),
(101,534,o),
(88,588,o),
(123,633,c),
(137,653,o),
(162,669,o),
(193,683,c),
(234,703,o),
(309,671,o),
(303,613,c),
(299,595,o),
(292,588,o),
(297,583,c),
(302,571,o),
(308,559,o),
(317,563,c),
(351,573,o),
(400,577,o),
(440,597,c),
(486,620,o),
(514,638,o),
(550,613,c),
(571,592,o),
(569,559,o),
(560,547,c),
(495,473,o),
(403,521,o),
(327,513,c),
(265,508,o),
(249,478,o),
(253,423,c),
(254,391,o),
(254,372,o),
(253,337,cs)
);
}
);
width = 600;
}
);
unicode = 69;
},
{
glyphname = F;
lastChange = "2023-04-14 02:14:30 +0000";
layers = (
{
layerId = m01;
shapes = (
{
closed = 1;
nodes = (
(100,221,o),
(100,237,c),
(100,307,o),
(100,377,o),
(100,450,c),
(100,467,o),
(100,587,o),
(100,600,c),
(120,600,o),
(167,600,o),
(200,600,c),
(200,627,o),
(200,677,o),
(200,700,c),
(253,700,o),
(207,700,o),
(220,700,c),
(223,700,o),
(230,700,o),
(233,700,c),
(280,700,o),
(343,700,o),
(380,700,c),
(417,700,o),
(470,700,o),
(500,700,c),
(500,677,o),
(500,627,o),
(500,600,c),
(453,600,o),
(420,600,o),
(377,600,c),
(327,600,o),
(250,600,o),
(200,600,c),
(200,590,o),
(200,507,o),
(200,493,c),
(200,453,o),
(200,440,o),
(200,400,c),
(210,400,o),
(241,399,o),
(247,400,c),
(257,400,o),
(270,400,o),
(287,400,c),
(293,400,o),
(303,400,o),
(313,400,c),
(323,400,o),
(337,400,o),
(363,400,c),
(370,400,o),
(387,400,o),
(400,400,c),
(400,390,o),
(400,317,o),
(400,300,c),
(337,300,o),
(280,300,o),
(200,300,c),
(200,297,o),
(200,277,o),
(200,273,c),
(200,207,o),
(200,150,o),
(200,87,c),
(200,50,o),
(200,10,o),
(200,0,c),
(183,0,o),
(113,0,o),
(100,0,c),
(100,17,o),
(100,43,o),
(100,63,cs),
(100,75,o),
(100,93,o),
(100,110,c),
(100,140,o),
(100,153,o),
(100,193,c),
(100,203,o)
);
}
);
width = 500;
},
{
layerId = m002;
shapes = (
{
closed = 1;
nodes = (
(150,221,o),
(150,237,c),
(152,308,o),
(148,376,o),
(143,450,c),
(142,468,o),
(119,486,o),
(103,500,c),
(73,526,o),
(63,595,o),
(83,637,c),
(96,659,o),
(125,684,o),
(153,687,c),
(205,696,o),
(232,666,o),
(233,610,c),
(233,605,o),
(233,600,o),
(233,590,c),
(280,612,o),
(343,611,o),
(383,657,c),
(413,692,o),
(512,682,o),
(543,650,c),
(564,631,o),
(548,594,o),
(513,583,c),
(468,569,o),
(426,576,o),
(383,567,c),
(331,551,o),
(276,535,o),
(223,510,c),
(219,507,o),
(217,498,o),
(213,493,c),
(217,452,o),
(218,421,o),
(223,380,cs),
(224,374,o),
(227,359,o),
(233,360,c),
(264,371,o),
(300,383,o),
(333,400,c),
(350,408,o),
(356,429,o),
(373,443,cs),
(406,461,o),
(453,462,o),
(483,457,c),
(500,452,o),
(523,442,o),
(523,423,c),
(530,392,o),
(497,370,o),
(463,357,c),
(395,330,o),
(300,312,o),
(223,290,c),
(224,288,o),
(221,281,o),
(223,277,c),
(218,213,o),
(218,150,o),
(213,87,c),
(200,-1,o),
(150,-14,o),
(113,-17,c),
(96,-15,o),
(85,-3,o),
(80,7,c),
(66,22,o),
(56,38,o),
(53,57,cs),
(50,69,o),
(61,97,o),
(73,110,c),
(103,136,o),
(133,156,o),
(143,193,cs),
(146,202,o)
);
}
);
width = 553;
}
);
unicode = 70;
},
{
glyphname = G;
lastChange = "2023-04-06 20:10:25 +0000";
layers = (
{
layerId = m01;
shapes = (
{
closed = 1;
nodes = (
(500,293,o),
(500,207,o),
(500,193,c),
(500,170,o),
(500,170,o),
(500,150,c),
(500,144,o),
(500,127,o),
(500,117,c),
(500,107,o),
(500,117,o),
(500,100,c),
(483,100,o),
(410,100,o),
(400,100,c),
(400,87,o),
(400,7,o),
(400,0,c),
(393,0,o),
(396,0,o),
(390,0,c),
(383,0,o),
(380,0,o),
(377,0,c),
(370,0,o),
(370,0,o),
(363,0,c),
(357,0,o),
(349,1,o),
(347,0,c),
(333,0,o),
(330,0,o),
(320,0,c),
(297,0,o),
(267,0,o),
(240,0,c),
(220,0,o),
(220,0,o),
(200,0,c),
(200,10,o),
(200,83,o),
(200,100,c),
(190,100,o),
(110,100,o),
(100,100,c),
(100,113,o),
(100,157,o),
(100,187,c),
(100,220,o),
(100,270,o),
(100,300,c),
(100,323,o),
(100,357,o),
(100,367,c),
(100,387,o),
(100,587,o),
(100,600,c),
(117,600,o),
(184,600,o),
(200,600,c),
(200,607,o),
(200,687,o),
(200,700,c),
(223,700,o),
(247,700,o),
(257,700,c),
(263,700,o),
(267,700,o),
(277,700,c),
(290,700,o),
(300,700,o),
(307,700,c),
(337,700,o),
(367,700,o),
(407,700,c),
(433,700,o),
(473,700,o),
(500,700,c),
(500,697,o),
(500,697,o),
(500,653,c),
(500,633,o),
(500,627,o),
(500,600,c),
(483,600,o),
(480,600,o),
(460,600,c),
(443,600,o),
(420,600,o),
(400,600,c),
(370,600,o),
(327,600,o),
(300,600,c),
(280,600,o),
(217,600,o),
(200,600,c),
(200,583,o),
(200,437,o),
(200,427,c),
(200,403,o),
(200,383,o),
(200,357,c),
(200,337,o),
(200,323,o),
(200,297,c),
(200,257,o),
(200,133,o),
(200,100,c),
(236,100,o),
(367,100,o),
(400,100,c),
(400,113,o),
(400,180,o),
(400,200,c),
(413,200,o),
(313,200,o),
(300,200,c),
(300,220,o),
(300,280,o),
(300,300,c),
(310,300,o),
(333,300,o),
(347,300,c),
(373,300,o),
(407,300,o),
(430,300,c),
(447,300,o),
(463,300,o),
(473,300,c),
(483,300,o),
(490,300,o),
(500,300,c)
);
}
);
width = 600;
},
{
layerId = m002;
shapes = (
{
closed = 1;
nodes = (
(523,220,o),
(502,206,o),
(490,193,c),
(468,169,o),
(466,133,o),
(497,113,c),
(507,106,o),
(523,103,o),
(530,93,c),
(538,81,o),
(544,64,o),
(543,50,c),
(542,33,o),
(534,14,o),
(513,10,c),
(498,6,o),
(481,9,o),
(467,10,c),
(433,17,o),
(420,26,o),
(410,50,c),
(404,58,o),
(405,73,o),
(410,87,c),
(414,101,o),
(409,136,o),
(397,147,c),
(393,149,o),
(385,148,o),
(383,147,c),
(361,133,o),
(343,118,o),
(323,107,c),
(294,92,o),
(265,78,o),
(237,70,c),
(217,62,o),
(197,65,o),
(180,70,c),
(159,69,o),
(139,73,o),
(123,83,c),
(110,86,o),
(102,101,o),
(93,110,c),
(66,131,o),
(51,159,o),
(40,190,c),
(26,224,o),
(25,261,o),
(33,300,c),
(39,322,o),
(47,345,o),
(57,370,c),
(65,387,o),
(76,404,o),
(87,423,c),
(115,461,o),
(113,465,o),
(150,497,c),
(158,503,o),
(167,509,o),
(177,517,c),
(198,534,o),
(223,550,o),
(247,570,c),
(258,583,o),
(268,601,o),
(280,617,c),
(293,630,o),
(300,637,o),
(307,643,c),
(335,676,o),
(366,677,o),
(407,690,c),
(431,694,o),
(460,697,o),
(490,687,c),
(523,673,o),
(541,656,o),
(543,610,c),
(548,572,o),
(535,543,o),
(510,520,c),
(495,501,o),
(478,486,o),
(460,477,c),
(443,465,o),
(423,464,o),
(407,457,c),
(379,442,o),
(349,444,o),
(323,453,c),
(305,456,o),
(292,462,o),
(280,450,c),
(271,441,o),
(257,431,o),
(250,423,c),
(226,401,o),
(208,381,o),
(190,357,c),
(173,338,o),
(165,315,o),
(157,293,c),
(141,260,o),
(133,226,o),
(147,193,c),
(151,170,o),
(167,163,o),
(190,173,c),
(210,183,o),
(231,193,o),
(253,203,c),
(268,209,o),
(270,222,o),
(273,237,c),
(279,256,o),
(288,276,o),
(303,293,c),
(313,304,o),
(332,310,o),
(347,320,c),
(376,335,o),
(407,326,o),
(437,327,c),
(451,324,o),
(466,317,o),
(480,310,c),
(503,294,o),
(523,273,o),
(523,237,cs)
);
}
);
width = 600;
}
);
unicode = 71;
},
{
glyphname = H;
lastChange = "2023-04-14 03:46:58 +0000";
layers = (
{
layerId = m01;
shapes = (
{
closed = 1;
nodes = (
(400,497,o),
(400,513,o),
(400,523,c),
(400,536,o),
(400,563,o),
(400,573,c),
(400,593,o),
(400,607,o),
(400,623,c),
(400,633,o),
(400,693,o),
(400,700,c),
(427,700,o),
(483,700,o),
(500,700,c),
(500,687,o),
(500,623,o),
(500,600,c),
(500,567,o),
(500,533,o),
(500,510,c),
(500,493,o),
(500,473,o),
(500,450,c),
(500,413,o),
(500,370,o),
(500,333,c),
(500,287,o),
(500,207,o),
(500,163,c),
(500,147,o),
(503,117,o),
(500,87,c),
(500,70,o),
(500,60,o),
(500,47,c),
(500,43,o),
(500,13,o),
(500,0,c),
(477,0,o),
(423,0,o),
(400,0,c),
(400,10,o),
(400,23,o),
(400,37,c),
(400,43,o),
(400,50,o),
(400,57,c),
(400,73,o),
(400,66,o),
(400,93,c),
(400,103,o),
(400,113,o),
(400,123,c),
(400,143,o),
(400,130,o),
(400,153,c),
(400,173,o),
(400,176,o),
(400,203,c),
(390,203,o),
(334,203,o),
(307,203,c),
(286,203,o),
(263,203,o),
(250,203,c),
(237,203,o),
(205,203,o),
(200,203,c),
(200,196,o),
(200,186,o),
(200,170,c),
(200,163,o),
(200,149,o),
(200,133,c),
(200,101,o),
(200,91,o),
(200,87,c),
(200,64,o),
(200,90,o),
(200,60,c),
(200,50,o),
(200,10,o),
(200,0,c),
(183,0,o),
(130,0,o),
(100,0,c),
(100,7,o),
(100,33,o),
(100,40,c),
(100,43,o),
(100,60,o),
(100,67,c),
(100,77,o),
(100,90,o),
(100,103,c),
(100,113,o),
(100,133,o),
(100,143,c),
(100,157,o),
(100,170,o),
(100,190,c),
(100,213,o),
(100,233,o),
(100,267,c),
(100,287,o),
(100,320,o),
(100,330,c),
(100,340,o),
(100,365,o),
(100,380,c),
(100,400,o),
(100,440,o),
(100,447,c),
(100,457,o),
(100,467,o),
(100,473,c),
(100,487,o),
(100,523,o),
(100,537,c),
(100,548,o),
(100,573,o),
(100,583,c),
(100,600,o),
(100,627,o),
(100,640,c),
(100,653,o),
(100,693,o),
(100,700,c),
(107,700,o),
(187,700,o),
(200,700,c),
(200,687,o),
(200,653,o),
(200,643,c),
(200,630,o),
(200,603,o),
(200,587,c),
(200,577,o),
(200,550,o),
(200,527,c),
(200,517,o),
(200,510,o),
(200,497,c),
(200,480,o),
(200,453,o),
(200,437,c),
(200,422,o),
(200,330,o),
(200,320,c),
(227,320,o),
(300,320,o),
(320,320,c),
(330,320,o),
(390,320,o),
(400,320,c),
(400,327,o),
(400,461,o),
(400,483,c)
);
}
);
width = 600;
},
{
layerId = m002;
shapes = (
{
closed = 1;
nodes = (
(427,496,o),
(417,511,o),
(410,523,c),
(404,542,o),
(408,557,o),
(420,570,c),
(434,593,o),
(452,616,o),
(477,633,c),
(487,646,o),
(505,648,o),
(520,653,c),
(547,657,o),
(568,651,o),
(587,637,c),
(604,625,o),
(618,610,o),
(613,593,c),
(603,563,o),
(600,529,o),
(577,507,c),
(560,491,o),
(551,470,o),
(547,450,c),
(533,410,o),
(520,370,o),
(513,333,c),
(501,287,o),
(500,208,o),
(493,163,c),
(524,131,o),
(530,113,o),
(523,83,c),
(519,69,o),
(503,56,o),
(490,43,c),
(487,38,o),
(481,28,o),
(470,30,c),
(454,10,o),
(436,-11,o),
(410,-7,c),
(393,-8,o),
(372,-7,o),
(360,7,c),
(342,10,o),
(330,25,o),
(327,47,c),
(312,63,o),
(316,88,o),
(327,117,c),
(328,119,o),
(330,127,o),
(337,137,c),
(343,155,o),
(356,174,o),
(363,200,c),
(373,217,o),
(378,240,o),
(390,267,c),
(383,267,o),
(358,255,o),
(330,257,cs),
(310,255,o),
(284,262,o),
(270,270,cs),
(259,273,o),
(246,282,o),
(240,283,c),
(236,285,o),
(225,254,o),
(223,243,c),
(223,237,o),
(230,233,o),
(230,230,c),
(243,224,o),
(252,214,o),
(260,200,cs),
(274,174,o),
(268,147,o),
(253,120,c),
(249,110,o),
(238,98,o),
(227,90,c),
(208,63,o),
(179,45,o),
(150,37,c),
(137,30,o),
(120,30,o),
(110,37,c),
(95,36,o),
(63,58,o),
(63,67,c),
(53,79,o),
(43,92,o),
(40,110,c),
(37,119,o),
(41,131,o),
(47,143,c),
(55,155,o),
(63,168,o),
(73,187,c),
(93,206,o),
(116,229,o),
(127,263,c),
(129,281,o),
(135,299,o),
(137,327,c),
(142,336,o),
(144,350,o),
(143,367,c),
(149,386,o),
(152,444,o),
(153,447,c),
(148,458,o),
(142,462,o),
(137,470,cs),
(121,485,o),
(103,520,o),
(107,533,c),
(107,543,o),
(111,569,o),
(120,580,c),
(131,598,o),
(145,612,o),
(163,627,c),
(167,637,o),
(177,643,o),
(187,653,c),
(198,658,o),
(209,669,o),
(220,673,c),
(233,674,o),
(261,679,o),
(273,670,cs),
(288,656,o),
(315,622,o),
(320,607,cs),
(331,578,o),
(327,552,o),
(317,530,c),
(307,519,o),
(293,511,o),
(287,500,c),
(280,481,o),
(277,461,o),
(277,447,cs),
(277,430,o),
(286,420,o),
(297,410,c),
(311,399,o),
(328,386,o),
(347,387,c),
(356,379,o),
(404,401,o),
(410,410,cs),
(416,413,o),
(427,460,o),
(427,483,cs)
);
}
);
width = 600;
}
);
unicode = 72;
},
{
glyphname = I;
lastChange = "2023-04-13 04:08:02 +0000";
layers = (
{
layerId = m01;
shapes = (
{
closed = 1;
nodes = (
(120,3,o),
(120,10,o),
(120,23,c),
(120,40,o),
(120,70,o),
(120,100,c),
(137,100,o),
(143,100,o),
(147,100,c),
(157,100,o),
(187,100,o),
(220,100,c),
(220,110,o),
(220,167,o),
(220,177,c),
(220,187,o),
(220,260,o),
(220,303,c),
(220,333,o),
(220,363,o),
(220,393,cs),
(220,424,o),
(220,460,o),
(220,493,c),
(220,503,o),
(220,599,o),
(220,600,c),
(193,600,o),
(140,600,o),
(120,600,c),
(120,617,o),
(120,630,o),
(120,647,c),
(120,659,o),
(120,687,o),
(120,700,c),
(127,700,o),
(133,700,o),
(170,700,c),
(193,700,o),
(233,700,o),
(250,700,c),
(263,700,o),
(290,700,o),
(307,700,c),
(323,700,o),
(357,700,o),
(363,700,c),
(387,700,o),
(403,700,o),
(420,700,c),
(420,667,o),
(420,620,o),
(420,600,c),
(407,600,o),
(323,600,o),
(320,600,c),
(320,547,o),
(320,393,o),
(320,343,c),
(320,300,o),
(320,253,o),
(320,213,c),
(320,183,o),
(320,170,o),
(320,140,c),
(320,133,o),
(320,93,o),
(320,100,c),
(337,100,o),
(343,100,o),
(353,100,c),
(380,100,o),
(403,100,o),
(420,100,c),
(420,93,o),
(420,86,o),
(420,73,c),
(420,65,o),
(420,27,o),
(420,20,c),
(420,10,o),
(420,7,o),
(420,0,c),
(400,0,o),
(320,0,o),
(297,0,c),
(270,0,o),
(233,0,o),
(217,0,c),
(203,0,o),
(173,0,o),
(153,0,c),
(140,0,o),
(130,0,o),
(120,0,c)
);
}
);
width = 540;
},
{
layerId = m002;
shapes = (
{
closed = 1;
nodes = (
(152,-17,o),
(115,-2,o),
(87,23,c),
(65,41,o),
(50,64,o),
(60,93,c),
(64,120,o),
(98,141,o),
(130,140,c),
(164,145,o),
(193,148,o),
(227,150,c),
(231,152,o),
(242,157,o),
(243,167,c),
(251,205,o),
(262,252,o),
(270,300,c),
(276,328,o),
(280,360,o),
(283,390,cs),
(287,420,o),
(290,448,o),
(293,480,c),
(294,479,o),
(290,482,o),
(290,483,c),
(266,481,o),
(244,479,o),
(223,483,c),
(154,490,o),
(111,546,o),
(120,613,c),
(121,626,o),
(128,638,o),
(137,647,c),
(166,677,o),
(207,667,o),
(243,670,c),
(267,671,o),
(296,668,o),
(313,653,c),
(338,640,o),
(357,638,o),
(380,647,c),
(394,654,o),
(413,663,o),
(423,660,c),
(447,656,o),
(468,647,o),
(483,633,c),
(520,598,o),
(508,548,o),
(467,527,c),
(455,525,o),
(403,510,o),
(400,490,c),
(392,439,o),
(383,392,o),
(377,343,c),
(366,301,o),
(359,258,o),
(350,213,c),
(347,184,o),
(343,156,o),
(337,127,c),
(338,124,o),
(345,119,o),
(350,120,cs),
(365,119,o),
(382,123,o),
(393,127,c),
(429,136,o),
(453,120,o),
(477,103,c),
(485,98,o),
(501,89,o),
(500,77,cs),
(501,68,o),
(499,53,o),
(493,50,c),
(486,39,o),
(478,33,o),
(467,27,c),
(429,1,o),
(395,14,o),
(367,33,c),
(336,52,o),
(317,39,o),
(290,23,c),
(273,9,o),
(249,-2,o),
(227,-10,c),
(216,-15,o),
(204,-15,o),
(193,-17,c)
);
}
);
width = 600;
}
);
unicode = 73;
},
{
glyphname = J;
lastChange = "2023-04-07 07:20:32 +0000";
layers = (
{
layerId = m01;
shapes = (
{
closed = 1;
nodes = (
(223,1,o),
(166,1,o),
(153,0,c),
(153,24,o),
(153,81,o),
(153,100,c),
(130,100,o),
(77,100,o),
(53,100,c),
(53,118,o),
(53,178,o),
(53,187,c),
(53,201,o),
(53,218,o),
(53,227,c),
(53,244,o),
(53,284,o),
(53,300,c),
(70,300,o),
(93,300,o),
(113,300,c),
(130,300,o),
(143,300,o),
(153,300,c),
(153,294,o),
(153,268,o),
(153,257,c),
(153,244,o),
(153,211,o),
(153,200,c),
(153,188,o),
(153,161,o),
(153,147,c),
(153,131,o),
(153,118,o),
(153,100,c),
(170,100,o),
(346,101,o),
(353,100,c),
(353,111,o),
(353,121,o),
(353,133,c),
(353,144,o),
(353,158,o),
(353,167,c),
(353,188,o),
(353,211,o),
(353,237,c),
(353,258,o),
(353,291,o),
(353,297,c),
(353,304,o),
(353,344,o),
(353,343,c),
(353,353,o),
(353,367,o),
(353,370,c),
(353,390,o),
(353,398,o),
(353,400,c),
(353,421,o),
(353,438,o),
(353,460,c),
(353,474,o),
(353,488,o),
(353,500,c),
(353,511,o),
(353,584,o),
(353,600,c),
(320,600,o),
(290,600,o),
(253,600,c),
(243,600,o),
(163,600,o),
(153,600,c),
(153,611,o),
(153,684,o),
(153,700,c),
(167,700,o),
(233,700,o),
(253,700,c),
(263,700,o),
(310,700,o),
(337,700,c),
(360,700,o),
(413,700,o),
(423,700,c),
(437,700,o),
(457,700,o),
(473,700,c),
(483,700,o),
(497,700,o),
(507,700,c),
(517,700,o),
(543,700,o),
(553,700,c),
(553,691,o),
(553,614,o),
(553,600,c),
(533,600,o),
(463,600,o),
(453,600,c),
(453,591,o),
(453,514,o),
(453,500,c),
(453,491,o),
(453,484,o),
(453,477,c),
(453,461,o),
(453,431,o),
(453,410,c),
(453,364,o),
(459,135,o),
(453,100,c),
(433,101,o),
(376,101,o),
(353,100,c),
(353,71,o),
(353,28,o),
(353,0,c),
(326,1,o),
(287,1,o),
(253,0,c)
);
}
);
width = 600;
},
{
layerId = m002;
shapes = (
{
closed = 1;
nodes = (
(233,-7,o),
(188,14,o),
(160,27,c),
(123,46,o),
(105,80,o),
(90,117,c),
(87,127,o),
(87,137,o),
(87,153,c),
(88,172,o),
(78,178,o),
(63,187,c),
(46,201,o),
(40,229,o),
(53,247,c),
(67,264,o),
(82,284,o),
(103,297,c),
(120,307,o),
(145,314,o),
(167,310,c),
(187,309,o),
(210,295,o),
(227,277,cs),
(233,271,o),
(227,243,o),
(220,227,c),
(213,214,o),
(195,206,o),
(187,190,c),
(176,178,o),
(169,162,o),
(167,147,c),
(163,125,o),
(173,89,o),
(190,73,cs),
(206,58,o),
(237,67,o),
(253,77,cs),
(267,86,o),
(311,118,o),
(333,157,cs),
(352,190,o),
(351,210,o),
(370,247,c),
(377,266,o),
(383,287,o),
(393,307,c),
(402,341,o),
(413,374,o),
(423,407,c),
(424,410,o),
(430,450,o),
(430,450,c),
(430,459,o),
(430,466,o),
(430,470,cs),
(430,489,o),
(422,497,o),
(420,497,cs),
(397,498,o),
(376,497,o),
(357,497,cs),
(344,497,o),
(333,496,o),
(323,497,c),
(304,494,o),
(286,488,o),
(270,487,c),
(235,493,o),
(206,506,o),
(190,537,c),
(182,555,o),
(173,571,o),
(170,587,c),
(167,599,o),
(176,613,o),
(177,627,c),
(172,650,o),
(210,661,o),
(220,673,c),
(230,682,o),
(295,686,o),
(320,687,c),
(341,688,o),
(363,666,o),
(373,647,c),
(382,626,o),
(396,609,o),
(410,597,c),
(417,587,o),
(430,583,o),
(440,587,c),
(453,586,o),
(465,596,o),
(480,600,c),
(487,603,o),
(496,601,o),
(507,600,c),
(534,608,o),
(555,593,o),
(567,567,c),
(569,555,o),
(566,538,o),
(563,527,c),
(554,514,o),
(539,504,o),
(533,490,c),
(523,467,o),
(514,448,o),
(507,423,c),
(494,379,o),
(483,334,o),
(477,300,cs),
(470,260,o),
(465,217,o),
(453,177,cs),
(426,90,o),
(413,73,o),
(363,27,cs),
(337,3,o),
(291,-7,o),
(257,-7,cs)
);
}
);
width = 600;
}
);
unicode = 74;
},
{
glyphname = K;
lastChange = "2023-04-13 14:29:18 +0000";
layers = (
{
layerId = m01;
shapes = (
{
closed = 1;
nodes = (
(157,18,o),
(157,0,c),
(147,0,o),
(133,0,o),
(123,0,c),
(90,0,o),
(70,0,o),
(57,0,c),
(57,8,o),
(57,14,o),
(57,23,c),
(57,44,o),
(57,58,o),
(57,70,c),
(57,91,o),
(57,118,o),
(57,127,c),
(57,134,o),
(57,141,o),
(57,150,c),
(57,154,o),
(57,168,o),
(57,173,c),
(57,181,o),
(57,194,o),
(57,207,c),
(57,221,o),
(57,288,o),
(57,297,c),
(57,338,o),
(57,401,o),
(57,413,c),
(57,431,o),
(57,454,o),
(57,463,c),
(57,488,o),
(57,521,o),
(57,533,c),
(57,551,o),
(57,585,o),
(57,600,c),
(57,618,o),
(57,684,o),
(57,700,c),
(67,700,o),
(107,700,o),
(157,700,c),
(157,691,o),
(157,668,o),
(157,653,c),
(157,648,o),
(157,618,o),
(157,600,c),
(157,594,o),
(157,544,o),
(157,517,c),
(157,508,o),
(157,451,o),
(157,427,c),
(157,411,o),
(157,408,o),
(157,400,c),
(167,400,o),
(247,400,o),
(257,400,c),
(257,408,o),
(257,474,o),
(257,500,c),
(270,500,o),
(340,500,o),
(357,500,c),
(357,524,o),
(357,581,o),
(357,600,c),
(370,600,o),
(430,600,o),
(457,600,c),
(457,611,o),
(457,684,o),
(457,700,c),
(477,700,o),
(537,700,o),
(557,700,c),
(557,688,o),
(557,624,o),
(557,600,c),
(537,600,o),
(470,600,o),
(457,600,c),
(457,578,o),
(457,518,o),
(457,500,c),
(443,500,o),
(367,500,o),
(357,500,c),
(357,487,o),
(357,411,o),
(357,400,c),
(357,374,o),
(357,321,o),
(357,300,c),
(373,300,o),
(447,300,o),
(457,300,c),
(457,294,o),
(457,118,o),
(457,100,c),
(470,100,o),
(543,100,o),
(557,100,c),
(557,88,o),
(557,-16,o),
(557,0,c),
(533,0,o),
(470,0,o),
(457,0,c),
(457,-16,o),
(457,121,o),
(457,100,c),
(430,100,o),
(380,100,o),
(357,100,c),
(357,114,o),
(357,174,o),
(357,200,c),
(357,211,o),
(357,281,o),
(357,300,c),
(330,300,o),
(280,300,o),
(257,300,c),
(250,300,o),
(173,300,o),
(157,300,c),
(157,288,o),
(157,231,o),
(157,200,c),
(157,188,o),
(157,178,o),
(157,167,c),
(157,154,o),
(157,138,o),
(157,120,c),
(157,111,o),
(157,81,o),
(157,73,c),
(157,61,o)
);
}
);
width = 600;
},
{
layerId = m002;
shapes = (
{
closed = 1;
nodes = (
(259,46,o),
(243,30,c),
(232,16,o),
(191,4,o),
(180,0,c),
(148,-3,o),
(135,-3,o),
(107,0,c),
(88,4,o),
(66,20,o),
(50,37,c),
(39,57,o),
(27,77,o),
(27,90,c),
(26,110,o),
(32,141,o),
(47,150,c),
(58,160,o),
(58,160,o),
(73,167,c),
(85,170,o),
(93,173,o),
(103,170,c),
(118,171,o),
(125,187,o),
(130,203,c),
(137,217,o),
(172,283,o),
(173,290,c),
(199,340,o),
(221,388,o),
(240,433,c),
(247,446,o),
(252,457,o),
(257,467,c),
(235,490,o),
(205,527,o),
(183,560,cs),
(174,578,o),
(171,587,o),
(170,603,c),
(171,620,o),
(174,634,o),
(180,647,c),
(184,653,o),
(223,694,o),
(273,670,c),
(289,663,o),
(315,657,o),
(333,643,c),
(347,640,o),
(356,626,o),
(367,610,c),
(374,605,o),
(388,583,o),
(383,557,c),
(383,532,o),
(343,476,o),
(330,453,c),
(324,439,o),
(304,384,o),
(300,367,c),
(302,369,o),
(301,367,o),
(297,357,c),
(302,362,o),
(332,376,o),
(373,403,c),
(411,430,o),
(408,430,o),
(417,447,c),
(424,468,o),
(419,474,o),
(423,493,c),
(435,528,o),
(451,543,o),
(477,557,c),
(493,565,o),
(508,575,o),
(520,573,cs),
(541,571,o),
(559,562,o),
(573,547,c),
(586,534,o),
(600,515,o),
(607,490,cs),
(611,479,o),
(604,457,o),
(600,437,c),
(597,414,o),
(592,403,o),
(573,393,cs),
(565,387,o),
(545,383,o),
(533,383,cs),
(517,383,o),
(471,367,o),
(463,367,c),
(378,300,o),
(408,219,o),
(440,130,c),
(447,139,o),
(471,150,o),
(477,153,c),
(503,158,o),
(510,161,o),
(533,157,c),
(561,154,o),
(587,144,o),
(607,123,c),
(638,97,o),
(644,62,o),
(640,23,c),
(635,7,o),
(625,-6,o),
(610,-13,c),
(592,-18,o),
(539,-27,o),
(510,-13,c),
(495,-20,o),
(472,-14,o),
(460,-7,c),
(445,3,o),
(430,18,o),
(417,30,cs),
(388,60,o),
(378,96,o),
(367,137,cs),
(358,180,o),
(355,226,o),
(347,270,c),
(344,284,o),
(304,290,o),
(293,283,c),
(282,283,o),
(271,263,o),
(257,243,c),
(251,230,o),
(235,171,o),
(230,150,c),
(225,162,o),
(271,133,o),
(273,117,c),
(282,104,o),
(285,93,o),
(277,70,c),
(275,57,o)
);
}
);
width = 673;
}
);
unicode = 75;
},
{
glyphname = L;
lastChange = "2023-04-14 02:15:18 +0000";
layers = (
{
layerId = m01;
shapes = (
{
closed = 1;
nodes = (
(343,701,o),
(350,700,c),
(367,701,o),
(377,701,o),
(400,700,c),
(400,684,o),
(400,634,o),
(400,600,c),
(390,600,o),
(313,600,o),
(300,600,c),
(300,580,o),
(300,417,o),
(300,400,c),
(270,400,o),
(217,400,o),
(200,400,c),
(200,367,o),
(200,227,o),
(200,200,c),
(183,200,o),
(113,200,o),
(100,200,c),
(100,194,o),
(100,107,o),
(100,100,c),
(129,100,o),
(243,100,o),
(270,100,c),
(287,100,o),
(297,100,o),
(320,100,c),
(360,100,o),
(467,100,o),
(500,100,c),
(500,80,o),
(500,30,o),
(500,0,c),
(487,0,o),
(416,0,o),
(400,0,c),
(380,0,o),
(273,0,o),
(257,0,c),
(243,0,o),
(213,0,o),
(193,0,c),
(177,0,o),
(180,0,o),
(163,0,c),
(143,0,o),
(154,0,o),
(130,0,c),
(117,0,o),
(137,0,o),
(117,0,c),
(111,0,o),
(10,0,o),
(0,0,c),
(0,20,o),
(0,163,o),
(0,200,c),
(7,200,o),
(83,200,o),
(100,200,c),
(100,223,o),
(100,357,o),
(100,400,c),
(113,400,o),
(180,400,o),
(200,400,c),
(200,413,o),
(200,460,o),
(200,500,c),
(200,520,o),
(200,577,o),
(200,600,c),
(217,600,o),
(270,600,o),
(300,600,c),
(300,627,o),
(300,660,o),
(300,700,c),
(307,701,o)
);
}
);
width = 500;
},
{
layerId = m002;
shapes = (
{
closed = 1;
nodes = (
(223,683,o),
(230,683,c),
(247,683,o),
(275,681,o),
(300,673,c),
(333,664,o),
(355,614,o),
(343,583,c),
(339,562,o),
(333,544,o),
(323,527,c),
(316,491,o),
(305,459,o),
(293,427,c),
(281,384,o),
(266,344,o),
(253,303,c),
(244,274,o),
(223,250,o),
(223,223,cs),
(223,214,o),
(234,196,o),
(240,187,c),
(243,183,o),
(257,163,o),
(260,163,cs),
(289,163,o),
(304,177,o),
(330,187,c),
(350,193,o),
(380,203,o),
(403,207,c),
(443,213,o),
(453,217,o),
(487,220,c),
(522,218,o),
(564,182,o),
(560,153,c),
(557,135,o),
(538,117,o),
(523,107,c),
(482,77,o),
(441,88,o),
(400,107,c),
(382,113,o),
(359,105,o),
(337,103,c),
(322,100,o),
(305,95,o),
(290,87,c),
(257,72,o),
(222,54,o),
(190,37,c),
(175,28,o),
(163,11,o),
(143,3,c),
(136,-1,o),
(116,-3,o),
(103,0,c),
(75,4,o),
(43,67,o),
(50,103,c),
(60,152,o),
(83,190,o),
(120,213,c),
(154,237,o),
(160,276,o),
(173,313,c),
(183,357,o),
(191,406,o),
(197,453,c),
(202,472,o),
(202,485,o),
(173,483,c),
(142,484,o),
(122,511,o),
(107,543,c),
(96,567,o),
(99,586,o),
(117,600,c),
(145,625,o),
(175,648,o),
(203,673,c),
(210,677,o)
);
}
);
width = 600;
}
);
unicode = 76;
},
{
glyphname = M;
lastChange = "2023-04-12 23:10:26 +0000";
layers = (
{
layerId = m01;
shapes = (
{
closed = 1;
nodes = (
(100,17,o),
(100,63,o),
(100,80,c),
(100,93,o),
(100,123,o),
(100,137,c),
(100,153,o),
(100,173,o),
(100,180,c),
(100,193,o),
(100,240,o),
(100,280,c),
(100,293,o),
(100,323,o),
(100,357,c),
(101,356,o),
(100,380,o),
(100,390,c),
(100,403,o),
(100,423,o),
(100,437,c),
(100,457,o),
(100,483,o),
(100,500,c),
(100,527,o),
(100,580,o),
(100,600,c),
(120,600,o),
(177,600,o),
(200,600,c),
(200,617,o),
(200,680,o),
(200,700,c),
(227,700,o),
(383,700,o),
(400,700,c),
(400,677,o),
(400,620,o),
(400,600,c),
(410,600,o),
(487,600,o),
(500,600,c),
(500,620,o),
(500,687,o),
(500,700,c),
(517,700,o),
(580,700,o),
(600,700,c),
(607,700,o),
(687,700,o),
(700,700,c),
(700,687,o),
(700,617,o),
(700,600,c),
(713,600,o),
(770,600,o),
(787,600,c),
(787,537,o),
(787,570,o),
(787,560,c),
(787,550,o),
(787,477,o),
(787,463,c),
(787,453,o),
(787,443,o),
(787,423,c),
(787,413,o),
(787,400,o),
(787,397,c),
(787,383,o),
(787,380,o),
(787,370,c),
(787,363,o),
(787,350,o),
(787,330,c),
(787,317,o),
(787,297,o),
(787,277,c),
(787,260,o),
(787,230,o),
(787,220,c),
(787,207,o),
(787,137,o),
(787,120,c),
(787,110,o),
(787,10,o),
(787,0,c),
(780,0,o),
(714,0,o),
(700,0,c),
(700,10,o),
(700,83,o),
(700,100,c),
(700,107,o),
(700,117,o),
(700,127,c),
(700,137,o),
(700,147,o),
(700,153,c),
(700,163,o),
(700,171,o),
(700,197,c),
(700,220,o),
(700,263,o),
(700,300,c),
(700,323,o),
(700,363,o),
(700,400,c),
(700,413,o),
(700,573,o),
(700,600,c),
(693,600,o),
(507,600,o),
(500,600,c),
(500,590,o),
(500,303,o),
(500,300,c),
(463,300,o),
(413,300,o),
(400,300,c),
(400,313,o),
(400,577,o),
(400,600,c),
(377,600,o),
(227,600,o),
(200,600,c),
(200,573,o),
(200,523,o),
(200,500,c),
(198,500,o),
(201,345,o),
(200,340,c),
(200,320,o),
(200,227,o),
(200,187,c),
(200,150,o),
(200,30,o),
(200,0,c),
(177,0,o),
(146,0,o),
(100,0,c)
);
}
);
width = 887;
},
{
layerId = m002;
shapes = (
{
closed = 1;
nodes = (
(88,11,o),
(42,49,o),
(33,83,c),
(26,103,o),
(31,120,o),
(43,140,c),
(60,163,o),
(79,173,o),
(103,180,c),
(149,191,o),
(159,243,o),
(177,283,c),
(195,325,o),
(207,369,o),
(220,413,c),
(222,413,o),
(218,420,o),
(213,420,c),
(183,413,o),
(157,429,o),
(137,460,c),
(126,479,o),
(115,498,o),
(107,520,c),
(95,547,o),
(121,598,o),
(147,603,c),
(170,608,o),
(193,616,o),
(213,623,c),
(240,632,o),
(294,607,o),
(313,587,c),
(342,549,o),
(343,518,o),
(357,470,c),
(362,446,o),
(366,404,o),
(377,383,cs),
(380,377,o),
(383,373,o),
(387,373,cs),
(388,373,o),
(393,373,o),
(397,383,c),
(409,412,o),
(417,435,o),
(430,463,c),
(432,468,o),
(434,473,o),
(433,477,c),
(436,497,o),
(437,516,o),
(440,537,c),
(440,545,o),
(442,555,o),
(447,563,c),
(476,613,o),
(513,648,o),
(570,650,c),
(605,650,o),
(627,570,o),
(627,557,c),
(627,547,o),
(627,533,o),
(623,517,c),
(620,507,o),
(618,500,o),
(617,497,c),
(611,484,o),
(599,473,o),
(597,460,cs),
(595,440,o),
(599,418,o),
(600,397,c),
(611,330,o),
(622,261,o),
(650,200,c),
(658,184,o),
(667,177,o),
(683,173,c),
(717,168,o),
(754,164,o),
(770,120,c),
(774,111,o),
(772,97,o),
(767,87,c),
(754,48,o),
(717,13,o),
(700,7,c),
(690,0,o),
(673,-1,o),
(663,3,c),
(645,7,o),
(628,16,o),
(610,27,c),
(598,38,o),
(582,53,o),
(577,70,c),
(570,92,o),
(575,118,o),
(573,143,c),
(570,178,o),
(567,214,o),
(563,250,c),
(554,289,o),
(544,328,o),
(540,367,c),
(537,393,o),
(533,407,o),
(527,433,cs),
(524,446,o),
(519,479,o),
(517,480,c),
(516,477,o),
(513,477,o),
(510,473,c),
(499,441,o),
(486,407,o),
(470,373,c),
(456,338,o),
(438,303,o),
(420,267,c),
(408,244,o),
(380,242,o),
(357,263,c),
(337,285,o),
(316,310,o),
(293,333,c),
(293,334,o),
(282,326,o),
(280,320,c),
(266,279,o),
(253,238,o),
(243,197,c),
(235,161,o),
(235,121,o),
(220,90,c),
(199,45,o),
(167,10,o),
(120,10,c)
);
}
);
width = 803;
}
);
unicode = 77;
},
{
glyphname = N;
lastChange = "2023-04-14 04:01:31 +0000";
layers = (
{
layerId = m01;
shapes = (
{
closed = 1;
nodes = (
(500,294,o),
(500,220,o),
(500,203,c),
(500,187,o),
(500,160,o),
(500,147,c),
(500,123,o),
(500,89,o),
(500,83,c),
(500,73,o),
(500,43,o),
(500,0,c),
(487,0,o),
(423,0,o),
(400,0,c),
(400,20,o),
(400,33,o),
(400,53,c),
(400,63,o),
(400,77,o),
(400,90,c),
(400,97,o),
(400,100,o),
(400,107,c),
(400,110,o),
(400,117,o),
(400,133,c),
(400,140,o),
(400,143,o),
(400,150,c),
(400,157,o),
(400,306,o),
(400,323,c),
(400,336,o),
(400,480,o),
(400,500,c),
(400,513,o),
(400,590,o),
(400,600,c),
(380,600,o),
(313,600,o),
(300,600,c),
(290,600,o),
(223,600,o),
(200,600,c),
(200,567,o),
(200,293,o),
(200,257,c),
(200,223,o),
(200,190,o),
(200,170,c),
(200,123,o),
(200,17,o),
(200,0,c),
(170,0,o),
(123,0,o),
(100,0,c),
(100,20,o),
(100,60,o),
(100,73,c),
(100,87,o),
(100,113,o),
(100,127,c),
(100,140,o),
(100,157,o),
(100,167,c),
(100,180,o),
(100,200,o),
(100,243,c),
(100,251,o),
(100,260,o),
(100,267,c),
(100,270,o),
(100,273,o),
(100,277,c),
(100,287,o),
(100,323,o),
(100,347,c),
(100,353,o),
(100,383,o),
(100,400,c),
(100,417,o),
(100,423,o),
(100,437,c),
(100,440,o),
(100,453,o),
(100,457,c),
(100,463,o),
(100,473,o),
(100,483,c),
(100,490,o),
(100,523,o),
(100,550,c),
(100,570,o),
(100,587,o),
(100,600,c),
(117,600,o),
(133,600,o),
(147,600,c),
(160,600,o),
(180,600,o),
(200,600,c),
(200,580,o),
(200,717,o),
(200,700,c),
(217,700,o),
(290,700,o),
(300,700,c),
(327,700,o),
(373,700,o),
(400,700,c),
(400,683,o),
(400,613,o),
(400,600,c),
(413,600,o),
(450,600,o),
(467,600,c),
(470,600,o),
(487,600,o),
(500,600,c),
(500,587,o),
(500,563,o),
(500,573,c),
(500,570,o),
(500,553,o),
(500,550,c),
(500,547,o),
(500,543,o),
(500,540,c),
(500,520,o),
(500,513,o),
(500,503,c),
(500,497,o),
(500,490,o),
(500,480,c),
(500,457,o),
(500,489,o),
(500,463,c),
(500,453,o),
(500,467,o),
(500,447,c),
(500,437,o),
(500,437,o),
(500,427,c),
(500,414,o),
(500,417,o),
(500,410,c),
(500,400,o),
(500,407,o),
(500,393,c),
(500,383,o),
(500,370,o),
(500,363,c),
(500,357,o),
(500,347,o),
(500,327,c),
(500,317,o),
(500,314,o),
(500,300,c)
);
}
);
width = 600;
},
{
layerId = m002;
shapes = (
{
closed = 1;
nodes = (
(571,493,o),
(568,463,o),
(563,447,c),
(560,423,o),
(558,410,o),
(557,390,c),
(549,366,o),
(546,342,o),
(540,317,c),
(534,273,o),
(527,229,o),
(520,187,c),
(510,151,o),
(501,117,o),
(490,83,c),
(487,63,o),
(483,43,o),
(477,27,c),
(467,5,o),
(445,0,o),
(427,13,c),
(418,16,o),
(405,15,o),
(400,23,c),
(392,39,o),
(386,57,o),
(380,77,c),
(377,98,o),
(372,123,o),
(367,143,c),
(365,163,o),
(363,180,o),
(360,197,c),
(354,214,o),
(348,231,o),
(343,250,c),
(340,261,o),
(340,274,o),
(337,283,c),
(330,307,o),
(327,324,o),
(320,343,c),
(317,357,o),
(284,389,o),
(280,400,c),
(278,395,o),
(293,314,o),
(290,277,c),
(286,244,o),
(288,214,o),
(280,180,c),
(275,134,o),
(265,87,o),
(230,60,c),
(197,35,o),
(167,-2,o),
(127,10,c),
(97,14,o),
(72,30,o),
(47,43,c),
(35,52,o),
(41,98,o),
(53,107,c),
(68,121,o),
(84,140,o),
(100,150,c),
(148,164,o),
(162,203,o),
(173,247,c),
(173,255,o),
(181,261,o),
(183,267,c),
(184,270,o),
(181,274,o),
(180,277,c),
(184,301,o),
(190,326,o),
(193,350,c),
(197,368,o),
(197,386,o),
(200,403,c),
(201,418,o),
(205,430,o),
(203,443,c),
(204,447,o),
(196,453,o),
(190,453,c),
(170,460,o),
(149,463,o),
(130,470,c),
(106,478,o),
(77,522,o),
(83,550,c),
(87,569,o),
(99,594,o),
(113,607,c),
(140,627,o),
(169,644,o),
(200,653,c),
(220,663,o),
(245,663,o),
(267,657,c),
(280,654,o),
(291,634,o),
(300,620,c),
(316,595,o),
(332,570,o),
(343,543,c),
(353,519,o),
(356,491,o),
(360,463,c),
(368,438,o),
(375,414,o),
(380,387,c),
(387,366,o),
(392,344,o),
(400,323,c),
(403,296,o),
(409,272,o),
(413,247,c),
(416,242,o),
(416,237,o),
(417,230,c),
(418,227,o),
(420,223,o),
(423,217,c),
(425,223,o),
(430,227,o),
(430,233,c),
(435,256,o),
(439,279,o),
(443,303,c),
(451,346,o),
(458,388,o),
(467,430,c),
(470,457,o),
(477,485,o),
(483,510,c),
(486,534,o),
(486,559,o),
(493,580,c),
(498,593,o),
(512,606,o),
(527,610,c),
(554,619,o),
(586,628,o),
(617,627,c),
(633,628,o),
(653,622,o),
(667,610,c),
(676,605,o),
(684,583,o),
(683,577,cs),
(684,557,o),
(678,534,o),
(667,517,c),
(651,492,o),
(630,484,o),
(600,483,c)
);
}
);
width = 693;
}
);
unicode = 78;
},
{
glyphname = O;
lastChange = "2023-04-14 04:00:04 +0000";
layers = (
{
layerId = m01;
shapes = (
{
closed = 1;
nodes = (
(523,200,o),
(550,200,c),
(550,223,o),
(550,483,o),
(550,500,c),
(530,500,o),
(463,500,o),
(450,500,c),
(450,510,o),
(450,580,o),
(450,600,c),
(440,600,o),
(263,600,o),
(250,600,c),
(250,587,o),
(250,510,o),
(250,500,c),
(233,500,o),
(163,500,o),
(150,500,c),
(150,457,o),
(150,240,o),
(150,200,c),
(167,200,o),
(240,200,o),
(250,200,c),
(250,177,o),
(250,123,o),
(250,100,c),
(263,100,o),
(330,100,o),
(350,100,c),
(360,100,o),
(437,100,o),
(450,100,c),
(450,110,o),
(450,180,o),
(450,200,c),
(463,200,o)
);
},
{
closed = 1;
nodes = (
(150,523,o),
(150,587,o),
(150,600,c),
(163,600,o),
(240,600,o),
(250,600,c),
(250,613,o),
(250,677,o),
(250,700,c),
(263,700,o),
(330,700,o),
(350,700,c),
(353,701,o),
(390,700,o),
(400,700,c),
(410,700,o),
(423,700,o),
(450,700,c),
(450,683,o),
(450,613,o),
(450,600,c),
(460,600,o),
(543,600,o),
(550,600,c),
(550,573,o),
(550,523,o),
(550,500,c),
(560,500,o),
(640,500,o),
(650,500,c),
(650,480,o),
(650,387,o),
(650,367,c),
(650,350,o),
(650,320,o),
(650,307,c),
(650,267,o),
(650,233,o),
(650,200,c),
(633,200,o),
(567,200,o),
(550,200,c),
(550,170,o),
(550,123,o),
(550,100,c),
(527,100,o),
(463,100,o),
(450,100,c),
(450,77,o),
(450,30,o),
(450,0,c),
(417,0,o),
(273,0,o),
(250,0,c),
(250,20,o),
(250,56,o),
(250,100,c),
(237,100,o),
(160,100,o),
(150,100,c),
(150,127,o),
(150,170,o),
(150,200,c),
(120,200,o),
(77,200,o),
(50,200,c),
(50,230,o),
(50,470,o),
(50,500,c),
(63,500,o),
(130,500,o),
(150,500,c)
);
}
);
width = 700;
},
{
layerId = m002;
shapes = (
{
closed = 1;
nodes = (
(372,208,o),
(390,250,c),
(400,271,o),
(407,301,o),
(410,317,c),
(417,336,o),
(416,357,o),
(427,387,c),
(373,350,o),
(334,307,o),
(267,330,c),
(258,334,o),
(242,344,o),
(227,350,c),
(223,354,o),
(207,355,o),
(197,347,cs),
(188,341,o),
(177,328,o),
(167,317,cs),
(144,282,o),
(132,261,o),
(127,220,c),
(124,195,o),
(141,158,o),
(147,147,cs),
(163,119,o),
(191,108,o),
(227,107,cs),
(239,108,o),
(262,115,o),
(277,127,c),
(290,131,o),
(312,150,o),
(320,157,c),
(326,160,o),
(340,177,o),
(347,187,cs),
(352,191,o)
);
},
{
closed = 1;
nodes = (
(154,574,o),
(166,587,o),
(180,600,c),
(189,613,o),
(205,621,o),
(213,623,c),
(229,630,o),
(238,631,o),
(250,630,c),
(266,631,o),
(285,634,o),
(303,633,c),
(306,634,o),
(334,631,o),
(340,630,c),
(375,627,o),
(379,621,o),
(407,610,c),
(441,599,o),
(461,591,o),
(497,577,cs),
(506,573,o),
(526,560,o),
(533,557,c),
(566,530,o),
(573,515,o),
(590,477,cs),
(597,458,o),
(601,429,o),
(600,407,cs),
(601,389,o),
(601,375,o),
(600,357,cs),
(601,341,o),
(592,308,o),
(587,297,cs),
(577,256,o),
(560,240,o),
(540,207,c),
(528,179,o),
(518,158,o),
(500,137,cs),
(464,90,o),
(424,61,o),
(377,37,cs),
(356,28,o),
(322,18,o),
(307,17,cs),
(274,5,o),
(241,-3,o),
(217,0,c),
(184,2,o),
(156,17,o),
(137,30,c),
(82,68,o),
(64,106,o),
(40,157,cs),
(29,177,o),
(25,206,o),
(23,223,cs),
(17,250,o),
(22,293,o),
(33,320,cs),
(47,360,o),
(47,383,o),
(67,420,cs),
(80,447,o),
(94,463,o),
(110,490,cs),
(117,509,o),
(122,520,o),
(140,547,c)
);
}
);
width = 623;
}
);
unicode = 79;
},
{
glyphname = P;
lastChange = "2023-04-14 03:47:40 +0000";
layers = (
{
layerId = m01;
shapes = (
{
closed = 1;
nodes = (
(400,550,o),
(400,580,o),
(400,600,c),
(372,600,o),
(320,600,o),
(300,600,c),
(280,600,o),
(210,600,o),
(200,600,c),
(200,590,o),
(200,517,o),
(200,500,c),
(200,490,o),
(200,463,o),
(200,457,c),
(200,447,o),
(200,313,o),
(200,300,c),
(226,300,o),
(287,300,o),
(300,300,c),
(323,300,o),
(377,300,o),
(400,300,c),
(400,340,o),
(400,472,o),
(400,500,c)
);
},
{
closed = 1;
nodes = (
(100,163,o),
(100,177,o),
(100,183,c),
(100,193,o),
(100,200,o),
(100,207,c),
(100,220,o),
(100,240,o),
(100,250,c),
(100,267,o),
(100,280,o),
(100,300,c),
(100,317,o),
(100,330,o),
(100,350,c),
(100,363,o),
(100,370,o),
(100,387,c),
(100,390,o),
(100,410,o),
(100,420,c),
(100,423,o),
(100,430,o),
(100,437,c),
(100,457,o),
(100,480,o),
(100,500,c),
(100,520,o),
(100,510,o),
(100,533,c),
(102,547,o),
(100,587,o),
(100,600,c),
(117,600,o),
(190,600,o),
(200,600,c),
(200,617,o),
(200,683,o),
(200,700,c),
(220,700,o),
(281,700,o),
(300,700,c),
(323,700,o),
(387,700,o),
(400,700,c),
(400,687,o),
(400,610,o),
(400,600,c),
(427,600,o),
(480,600,o),
(500,600,c),
(500,590,o),
(500,573,o),
(500,563,c),
(500,543,o),
(500,510,o),
(500,473,c),
(500,457,o),
(500,317,o),
(500,300,c),
(493,300,o),
(423,300,o),
(400,300,c),
(400,253,o),
(400,210,o),
(400,200,c),
(380,200,o),
(350,200,o),
(333,200,c),
(327,200,o),
(314,200,o),
(300,200,c),
(290,200,o),
(200,200,o),
(200,200,c),
(200,193,o),
(200,137,o),
(200,127,c),
(200,100,o),
(200,127,o),
(200,110,c),
(200,93,o),
(200,27,o),
(200,0,c),
(183,0,o),
(167,0,o),
(130,0,c),
(120,0,o),
(110,0,o),
(100,0,c),
(100,13,o),
(100,63,o),
(100,80,c),
(100,90,o),
(100,97,o),
(100,100,c),
(100,107,o),
(100,140,o),
(100,153,c)
);
}
);
width = 600;
},
{
layerId = m002;
shapes = (
{
closed = 1;
nodes = (
(472,511,o),
(467,520,o),
(433,520,c),
(407,520,o),
(379,513,o),
(353,503,c),
(335,497,o),
(316,486,o),
(313,460,c),
(308,430,o),
(300,399,o),
(293,367,c),
(291,357,o),
(288,353,o),
(303,350,c),
(312,348,o),
(324,344,o),
(330,337,c),
(342,320,o),
(357,329,o),
(367,337,c),
(392,349,o),
(416,365,o),
(437,383,c),
(459,405,o),
(475,432,o),
(477,460,c)
);
},
{
closed = 1;
nodes = (
(129,150,o),
(116,158,o),
(123,163,c),
(131,175,o),
(141,188,o),
(150,203,c),
(156,215,o),
(161,229,o),
(167,243,c),
(173,264,o),
(177,278,o),
(183,300,c),
(188,327,o),
(188,340,o),
(193,370,c),
(193,391,o),
(197,410,o),
(200,430,c),
(199,432,o),
(190,435,o),
(183,437,c),
(164,444,o),
(142,448,o),
(123,460,c),
(113,467,o),
(107,485,o),
(103,500,c),
(101,517,o),
(101,536,o),
(103,553,c),
(107,567,o),
(117,579,o),
(123,593,c),
(129,601,o),
(143,620,o),
(147,627,c),
(159,642,o),
(191,652,o),
(207,653,c),
(225,656,o),
(243,660,o),
(260,660,c),
(286,656,o),
(313,653,o),
(333,633,c),
(344,619,o),
(368,596,o),
(387,597,c),
(411,600,o),
(439,607,o),
(463,593,c),
(480,584,o),
(495,576,o),
(510,567,c),
(543,544,o),
(574,520,o),
(583,480,c),
(586,460,o),
(582,436,o),
(573,417,c),
(561,390,o),
(543,364,o),
(523,340,c),
(493,294,o),
(449,264,o),
(397,243,c),
(378,237,o),
(357,232,o),
(337,227,c),
(314,224,o),
(292,220,o),
(277,220,c),
(268,220,o),
(258,223,o),
(257,223,c),
(252,223,o),
(246,212,o),
(240,203,c),
(228,175,o),
(218,146,o),
(207,117,c),
(193,92,o),
(178,67,o),
(163,40,c),
(146,11,o),
(117,-2,o),
(83,7,c),
(63,10,o),
(45,16,o),
(27,23,c),
(0,36,o),
(-18,60,o),
(-13,90,c),
(-12,107,o),
(-5,117,o),
(-3,120,cs),
(6,128,o),
(45,153,o),
(63,153,c)
);
}
);
width = 583;
}
);
unicode = 80;
},
{
glyphname = Q;
lastChange = "2023-04-14 01:53:00 +0000";
layers = (
{
layerId = m01;
shapes = (
{
closed = 1;
nodes = (
(23,333,l),
(25,333,o),
(25,331,o),
(23,327,c)
);
},
{
closed = 1;
nodes = (
(99,301,o),
(100,297,o),
(100,287,c),
(100,280,o),
(100,277,o),
(100,270,c),
(100,260,o),
(100,207,o),
(100,200,c),
(117,200,o),
(190,200,o),
(200,200,c),
(200,193,o),
(200,103,o),
(200,100,c),
(207,100,o),
(377,100,o),
(400,100,c),
(400,120,o),
(400,173,o),
(400,200,c),
(370,200,o),
(310,200,o),
(300,200,c),
(300,217,o),
(300,270,o),
(300,300,c),
(317,300,o),
(377,300,o),
(400,300,c),
(400,310,o),
(400,190,o),
(400,200,c),
(410,200,o),
(483,200,o),
(500,200,c),
(500,240,o),
(500,330,o),
(500,350,c),
(500,357,o),
(500,367,o),
(500,403,c),
(500,410,o),
(500,487,o),
(500,500,c),
(473,500,o),
(420,500,o),
(400,500,c),
(400,510,o),
(400,587,o),
(400,600,c),
(383,600,o),
(323,600,o),
(300,600,c),
(270,600,o),
(227,600,o),
(200,600,c),
(199,601,o),
(200,520,o),
(200,500,c),
(180,500,o),
(110,500,o),
(100,500,c),
(100,473,o),
(100,337,o),
(100,313,c)
);
},
{
closed = 1;
nodes = (
(523,500,o),
(580,500,o),
(600,500,c),
(600,463,o),
(600,230,o),
(600,200,c),
(577,200,o),
(513,200,o),
(500,200,c),
(500,187,o),
(500,107,o),
(500,100,c),
(500,100,o),
(503,100,o),
(513,100,c),
(513,101,o),
(517,100,o),
(523,100,c),
(530,100,o),
(540,100,o),
(547,100,c),
(553,100,o),
(557,100,o),
(573,100,c),
(580,100,o),
(587,100,o),
(600,100,c),
(600,83,o),
(600,30,o),
(600,0,c),
(590,0,o),
(583,0,o),
(580,0,c),
(573,0,o),
(560,0,o),
(547,0,c),
(540,0,o),
(527,0,o),
(520,0,c),
(510,0,o),
(507,0,o),
(500,0,c),
(500,17,o),
(500,87,o),
(500,100,c),
(480,100,o),
(427,100,o),
(400,100,c),
(400,77,o),
(402,2,o),
(400,0,c),
(383,0,o),
(300,0,o),
(270,0,c),
(250,0,o),
(218,1,o),
(200,0,c),
(200,27,o),
(200,80,o),
(200,100,c),
(170,100,o),
(117,100,o),
(100,100,c),
(100,120,o),
(100,177,o),
(100,200,c),
(80,200,o),
(17,200,o),
(0,200,c),
(0,230,o),
(0,280,o),
(0,307,c),
(0,330,o),
(0,413,o),
(0,433,c),
(0,450,o),
(0,483,o),
(0,500,c),
(13,500,o),
(83,500,o),
(100,500,c),
(100,513,o),
(100,587,o),
(100,600,c),
(113,600,o),
(193,600,o),
(200,600,c),
(200,607,o),
(200,687,o),
(200,700,c),
(210,700,o),
(263,700,o),
(280,700,c),
(290,700,o),
(320,700,o),
(337,700,c),
(350,700,o),
(383,700,o),
(400,700,c),
(400,680,o),
(400,617,o),
(400,600,c),
(423,600,o),
(487,600,o),
(500,600,c),
(500,577,o),
(500,510,o),
(500,500,c)
);
}
);
width = 650;
},
{
layerId = m002;
shapes = (
{
closed = 1;
nodes = (
(43,327,l),
(43,327,o),
(43,327,o),
(43,323,c)
);
},
{
closed = 1;
nodes = (
(150,287,o),
(127,237,o),
(133,200,c),
(137,187,o),
(147,157,o),
(163,133,c),
(177,110,o),
(223,103,o),
(243,110,c),
(260,113,o),
(280,120,o),
(293,143,c),
(303,167,o),
(307,187,o),
(290,203,c),
(287,207,o),
(287,207,o),
(283,207,c),
(267,210,o),
(240,220,o),
(243,250,c),
(250,273,o),
(250,280,o),
(273,290,c),
(290,297,o),
(307,297,o),
(327,290,c),
(347,283,o),
(350,277,o),
(353,257,c),
(353,253,o),
(353,243,o),
(353,243,c),
(357,247,o),
(360,247,o),
(363,250,c),
(383,293,o),
(403,337,o),
(420,377,c),
(433,410,o),
(433,447,o),
(427,480,c),
(427,487,o),
(423,487,o),
(420,490,c),
(417,490,o),
(417,490,o),
(417,487,c),
(403,463,o),
(397,433,o),
(377,413,c),
(360,397,o),
(337,390,o),
(310,380,c),
(283,367,o),
(253,370,o),
(223,387,c),
(220,390,o),
(210,387,o),
(207,383,c),
(197,377,o),
(190,367,o),
(183,357,c),
(170,340,o),
(157,313,o),
(153,297,c)
);
},
{
closed = 1;
nodes = (
(563,337,o),
(557,317,o),
(543,287,c),
(530,250,o),
(513,217,o),
(493,180,c),
(477,157,o),
(453,133,o),
(437,107,c),
(433,100,o),
(437,87,o),
(443,80,c),
(450,67,o),
(460,57,o),
(470,43,c),
(470,43,o),
(477,43,o),
(477,47,c),
(490,53,o),
(503,63,o),
(517,67,c),
(530,73,o),
(547,77,o),
(560,77,c),
(577,73,o),
(593,70,o),
(607,63,c),
(637,47,o),
(647,33,o),
(660,3,c),
(663,-3,o),
(653,-33,o),
(647,-43,c),
(640,-57,o),
(630,-70,o),
(617,-80,c),
(613,-83,o),
(600,-87,o),
(597,-87,c),
(580,-90,o),
(573,-103,o),
(520,-80,cs),
(507,-73,o),
(483,-50,o),
(470,-37,c),
(437,-10,o),
(403,23,o),
(377,60,c),
(373,63,o),
(360,53,o),
(357,53,c),
(333,47,o),
(307,37,o),
(283,30,c),
(267,23,o),
(247,20,o),
(227,17,c),
(193,17,o),
(163,33,o),
(137,50,c),
(117,67,o),
(97,83,o),
(83,100,c),
(70,120,o),
(57,140,o),
(50,163,c),
(40,183,o),
(33,203,o),
(33,223,c),
(30,250,o),
(30,277,o),
(33,300,c),
(37,323,o),
(63,413,o),
(73,433,c),
(77,443,o),
(87,453,o),
(90,463,c),
(97,483,o),
(107,503,o),
(113,513,c),
(110,513,o),
(143,560,o),
(143,560,c),
(163,583,o),
(187,607,o),
(193,610,c),
(203,620,o),
(217,620,o),
(230,627,c),
(243,630,o),
(253,633,o),
(267,633,c),
(297,633,o),
(323,627,o),
(350,610,c),
(370,600,o),
(393,597,o),
(413,587,c),
(437,573,o),
(460,557,o),
(483,543,c),
(520,517,o),
(543,480,o),
(560,440,c),
(567,420,o),
(567,390,o),
(567,380,c)
);
}
);
width = 670;
}
);
unicode = 81;
},
{
glyphname = R;
lastChange = "2023-04-14 03:44:38 +0000";
layers = (
{
layerId = m01;
shapes = (
{
closed = 1;
nodes = (
(400,577,o),
(400,600,c),
(363,600,o),
(237,600,o),
(200,600,c),
(200,577,o),
(200,530,o),
(200,500,c),
(200,480,o),
(200,480,o),
(200,450,c),
(200,430,o),
(199,297,o),
(200,297,c),
(220,297,o),
(250,297,o),
(267,297,c),
(280,297,o),
(300,297,o),
(310,297,c),
(320,297,o),
(380,297,o),
(400,297,c),
(400,310,o),
(400,490,o),
(400,500,c),
(400,527,o)
);
},
{
closed = 1;
nodes = (
(100,113,o),
(100,167,o),
(100,193,c),
(102,202,o),
(100,220,o),
(100,233,c),
(100,293,o),
(100,330,o),
(100,417,c),
(100,423,o),
(100,447,o),
(100,457,c),
(100,463,o),
(100,473,o),
(100,483,c),
(100,503,o),
(100,533,o),
(100,543,c),
(100,547,o),
(100,553,o),
(100,560,c),
(100,567,o),
(100,593,o),
(100,600,c),
(117,600,o),
(183,600,o),
(200,600,c),
(200,623,o),
(200,670,o),
(200,700,c),
(227,700,o),
(293,700,o),
(313,700,c),
(337,700,o),
(377,700,o),
(400,700,c),
(400,673,o),
(400,620,o),
(400,600,c),
(423,600,o),
(490,600,o),
(500,600,c),
(500,573,o),
(500,487,o),
(500,460,c),
(500,447,o),
(500,314,o),
(500,297,c),
(470,297,o),
(436,297,o),
(400,297,c),
(400,270,o),
(400,217,o),
(400,197,c),
(423,197,o),
(487,197,o),
(500,197,c),
(500,163,o),
(500,213,o),
(500,187,c),
(500,170,o),
(500,150,o),
(500,137,c),
(500,130,o),
(500,120,o),
(500,110,c),
(500,107,o),
(500,100,o),
(500,97,c),
(500,90,o),
(499,71,o),
(500,57,c),
(500,33,o),
(500,10,o),
(500,0,c),
(460,0,o),
(427,0,o),
(400,0,c),
(400,23,o),
(400,77,o),
(400,100,c),
(400,120,o),
(400,163,o),
(400,173,c),
(400,217,o),
(400,160,o),
(400,197,c),
(390,197,o),
(302,197,o),
(283,197,c),
(263,197,o),
(237,197,o),
(223,197,c),
(216,197,o),
(217,197,o),
(200,197,c),
(200,177,o),
(200,250,o),
(200,237,c),
(200,223,o),
(200,210,o),
(200,197,c),
(200,187,o),
(200,177,o),
(200,173,c),
(200,157,o),
(200,140,o),
(200,127,c),
(200,110,o),
(200,97,o),
(200,87,c),
(200,57,o),
(200,33,o),
(200,23,c),
(200,13,o),
(200,3,o),
(200,0,c),
(184,0,o),
(120,0,o),
(100,0,c),
(100,10,o),
(100,23,o),
(100,37,c),
(100,57,o),
(100,83,o),
(100,100,c)
);
}
);
width = 600;
},
{
layerId = m002;
shapes = (
{
closed = 1;
nodes = (
(454,532,o),
(437,557,c),
(408,576,o),
(378,576,o),
(347,557,c),
(332,540,o),
(312,529,o),
(310,503,c),
(306,479,o),
(303,453,o),
(300,427,c),
(299,425,o),
(299,419,o),
(300,420,c),
(316,413,o),
(330,404,o),
(347,403,c),
(358,405,o),
(373,409,o),
(380,417,c),
(389,424,o),
(395,432,o),
(400,437,c),
(414,448,o),
(428,455,o),
(433,467,c),
(449,491,o)
);
},
{
closed = 1;
nodes = (
(84,189,o),
(99,193,o),
(127,190,c),
(129,198,o),
(128,200,o),
(133,210,c),
(155,293,o),
(171,366,o),
(187,453,c),
(186,458,o),
(184,472,o),
(180,473,c),
(152,470,o),
(132,487,o),
(107,507,c),
(98,515,o),
(87,529,o),
(73,550,cs),
(71,554,o),
(72,574,o),
(73,593,c),
(80,604,o),
(91,625,o),
(97,640,cs),
(102,648,o),
(117,659,o),
(130,667,c),
(182,683,o),
(234,675,o),
(273,640,c),
(292,626,o),
(305,629,o),
(320,633,c),
(374,655,o),
(424,642,o),
(467,613,c),
(496,598,o),
(518,578,o),
(533,557,c),
(549,540,o),
(551,515,o),
(553,497,c),
(555,477,o),
(554,460,o),
(553,447,c),
(551,440,o),
(542,434,o),
(540,420,c),
(522,382,o),
(491,351,o),
(457,317,c),
(459,318,o),
(459,311,o),
(457,310,c),
(473,292,o),
(486,276,o),
(500,257,c),
(523,233,o),
(539,202,o),
(557,180,c),
(566,156,o),
(584,167,o),
(597,163,c),
(628,153,o),
(659,145,o),
(683,137,c),
(694,133,o),
(700,126,o),
(710,117,c),
(712,109,o),
(722,96,o),
(723,83,c),
(730,59,o),
(722,51,o),
(697,33,c),
(642,1,o),
(593,18,o),
(543,43,c),
(521,56,o),
(499,73,o),
(477,97,c),
(468,106,o),
(461,128,o),
(453,143,c),
(445,191,o),
(423,232,o),
(397,270,c),
(385,288,o),
(369,276,o),
(350,277,c),
(330,278,o),
(306,278,o),
(280,283,c),
(273,282,o),
(272,276,o),
(270,273,c),
(268,255,o),
(265,238,o),
(263,223,c),
(259,207,o),
(255,200,o),
(247,183,c),
(238,177,o),
(244,173,o),
(247,170,c),
(253,153,o),
(266,135,o),
(270,123,c),
(272,106,o),
(270,93,o),
(263,80,c),
(247,39,o),
(220,14,o),
(180,10,c),
(151,3,o),
(118,4,o),
(93,23,c),
(75,47,o),
(56,63,o),
(37,83,c),
(24,100,o),
(37,135,o),
(50,157,c),
(56,166,o),
(63,176,o),
(73,180,c)
);
}
);
width = 747;
}
);
unicode = 82;
},
{
glyphname = S;
lastChange = "2023-04-14 03:57:57 +0000";
layers = (
{
layerId = m01;
shapes = (
{
closed = 1;
nodes = (
(127,200,o),
(157,200,o),
(200,200,c),
(200,180,o),
(200,117,o),
(200,100,c),
(207,100,o),
(213,100,o),
(223,100,c),
(229,100,o),
(237,100,o),
(250,100,c),
(264,100,o),
(272,99,o),
(300,100,c),
(327,100,o),
(373,100,o),
(400,100,c),
(400,143,o),
(400,250,o),
(400,300,c),
(357,300,o),
(223,300,o),
(200,300,c),
(200,330,o),
(200,377,o),
(200,400,c),
(163,400,o),
(130,400,o),
(100,400,c),
(100,430,o),
(100,557,o),
(100,600,c),
(130,600,o),
(163,600,o),
(200,600,c),
(200,617,o),
(200,683,o),
(200,700,c),
(223,700,o),
(286,699,o),
(300,700,c),
(323,700,o),
(380,700,o),
(400,700,c),
(400,680,o),
(400,620,o),
(400,600,c),
(423,600,o),
(483,600,o),
(500,600,c),
(500,583,o),
(500,570,o),
(500,560,c),
(500,543,o),
(500,517,o),
(500,500,c),
(487,500,o),
(480,500,o),
(473,500,c),
(460,500,o),
(410,500,o),
(400,500,c),
(400,523,o),
(400,583,o),
(400,600,c),
(350,600,o),
(333,600,o),
(300,600,c),
(277,600,o),
(230,603,o),
(200,600,c),
(200,563,o),
(200,427,o),
(200,400,c),
(230,400,o),
(383,400,o),
(400,400,c),
(400,370,o),
(400,330,o),
(400,300,c),
(423,300,o),
(487,303,o),
(500,300,c),
(500,277,o),
(497,123,o),
(500,100,c),
(463,100,o),
(423,100,o),
(400,100,c),
(400,70,o),
(400,20,o),
(400,0,c),
(350,0,o),
(253,0,o),
(200,0,c),
(200,17,o),
(200,73,o),
(200,100,c),
(177,100,o),
(127,100,o),
(100,100,c),
(100,113,o),
(100,187,o),
(100,200,c)
);
}
);
width = 600;
},
{
layerId = m002;
shapes = (
{
closed = 1;
nodes = (
(-40,349,o),
(19,347,o),
(63,353,c),
(114,361,o),
(166,346,o),
(187,303,cs),
(195,289,o),
(191,270,o),
(187,260,c),
(173,198,o),
(221,163,o),
(257,133,c),
(284,113,o),
(307,113,o),
(333,113,c),
(360,117,o),
(388,117,o),
(403,130,c),
(428,145,o),
(445,171,o),
(453,197,c),
(472,232,o),
(436,228,o),
(417,237,c),
(383,253,o),
(346,265,o),
(313,287,c),
(277,310,o),
(240,339,o),
(210,370,c),
(183,404,o),
(167,445,o),
(177,487,c),
(192,538,o),
(218,590,o),
(247,607,c),
(255,613,o),
(278,625,o),
(293,630,cs),
(318,637,o),
(331,640,o),
(343,640,c),
(367,643,o),
(380,644,o),
(400,647,c),
(424,650,o),
(444,650,o),
(467,650,c),
(486,648,o),
(511,642,o),
(527,637,c),
(563,628,o),
(589,613,o),
(607,583,c),
(631,553,o),
(642,522,o),
(637,487,c),
(631,460,o),
(617,440,o),
(600,423,c),
(588,412,o),
(577,405,o),
(557,397,c),
(547,392,o),
(528,387,o),
(490,390,c),
(421,410,o),
(357,429,o),
(320,503,c),
(314,492,o),
(300,477,o),
(290,460,c),
(275,420,o),
(282,402,o),
(320,370,c),
(360,335,o),
(407,316,o),
(457,303,c),
(493,293,o),
(529,280,o),
(560,260,c),
(591,241,o),
(602,203,o),
(600,167,c),
(614,143,o),
(582,112,o),
(567,87,c),
(553,60,o),
(530,39,o),
(497,30,c),
(444,17,o),
(388,12,o),
(333,33,c),
(277,56,o),
(220,78,o),
(163,107,c),
(129,124,o),
(98,152,o),
(63,173,c),
(35,197,o),
(4,217,o),
(-23,240,c),
(-37,252,o),
(-44,270,o),
(-50,280,c)
);
}
);
width = 677;
}
);
unicode = 83;
},
{
glyphname = T;
lastChange = "2023-04-14 04:01:16 +0000";
layers = (
{
layerId = m01;
shapes = (
{
closed = 1;
nodes = (
(59,700,o),
(131,698,o),
(133,700,c),
(157,700,o),
(200,700,o),
(210,700,c),
(217,700,o),
(237,700,o),
(243,700,c),
(257,700,o),
(270,700,o),
(297,700,c),
(317,700,o),
(333,700,o),
(357,700,c),
(383,700,o),
(420,700,o),
(457,700,c),
(486,700,o),
(493,700,o),
(500,700,c),
(500,683,o),
(500,626,o),
(500,600,c),
(487,600,o),
(480,600,o),
(473,600,c),
(463,600,o),
(457,600,o),
(440,600,c),
(430,600,o),
(423,600,o),
(413,600,c),
(407,600,o),
(320,600,o),
(300,600,c),
(300,587,o),
(300,340,o),
(300,290,c),
(300,240,o),
(300,177,o),
(300,140,c),
(300,127,o),
(300,100,o),
(300,87,c),
(300,67,o),
(300,20,o),
(300,0,c),
(280,0,o),
(280,0,o),
(250,0,c),
(217,0,o),
(213,0,o),
(200,0,c),
(200,23,o),
(200,100,o),
(200,117,c),
(200,137,o),
(200,263,o),
(200,297,c),
(200,370,o),
(200,427,o),
(200,457,c),
(200,473,o),
(200,490,o),
(200,500,c),
(200,520,o),
(200,573,o),
(200,600,c),
(190,600,o),
(177,600,o),
(167,600,c),
(147,600,o),
(127,600,o),
(100,600,c),
(57,600,o),
(20,600,o),
(0,600,c),
(0,627,o),
(0,663,o),
(0,700,c),
(13,700,o),
(39,700,o),
(47,700,c)
);
}
);
width = 500;
},
{
layerId = m002;
shapes = (
{
closed = 1;
nodes = (
(74,658,o),
(86,661,o),
(90,663,c),
(131,670,o),
(156,665,o),
(183,640,c),
(188,638,o),
(201,630,o),
(210,627,c),
(241,620,o),
(254,617,o),
(283,620,c),
(317,628,o),
(352,634,o),
(383,653,c),
(416,670,o),
(454,687,o),
(490,683,c),
(517,683,o),
(545,680,o),
(563,653,c),
(583,641,o),
(594,631,o),
(600,603,c),
(605,586,o),
(606,553,o),
(593,543,c),
(579,517,o),
(562,496,o),
(533,490,c),
(507,477,o),
(478,480,o),
(453,483,c),
(434,486,o),
(416,506,o),
(393,507,c),
(399,510,o),
(384,277,o),
(380,240,c),
(378,190,o),
(374,159,o),
(363,123,c),
(371,110,o),
(382,103,o),
(393,90,c),
(399,73,o),
(398,50,o),
(397,33,c),
(390,2,o),
(337,-6,o),
(310,-3,c),
(275,-3,o),
(236,39,o),
(243,73,c),
(241,84,o),
(263,114,o),
(273,123,c),
(301,147,o),
(297,246,o),
(303,300,c),
(305,370,o),
(308,444,o),
(313,510,c),
(311,515,o),
(308,517,o),
(303,517,c),
(259,521,o),
(234,492,o),
(203,473,c),
(197,469,o),
(182,466,o),
(173,463,c),
(148,453,o),
(122,454,o),
(93,457,c),
(50,463,o),
(19,499,o),
(3,547,c),
(-3,573,o),
(-2,604,o),
(20,640,c),
(34,654,o),
(54,660,o),
(63,660,c)
);
}
);
width = 627;
}
);
unicode = 84;
},
{
glyphname = U;
lastChange = "2023-04-13 14:35:13 +0000";
layers = (
{
layerId = m01;
shapes = (
{
closed = 1;
nodes = (
(100,560,o),
(100,570,c),
(100,583,o),
(100,620,o),
(100,630,c),
(100,643,o),
(100,683,o),
(100,700,c),
(107,700,o),
(117,700,o),
(127,700,c),
(144,699,o),
(187,700,o),
(200,700,c),
(200,687,o),
(200,633,o),
(200,617,c),
(200,600,o),
(200,580,o),
(200,557,c),
(200,533,o),
(200,497,o),
(200,480,c),
(200,423,o),
(200,347,o),
(200,310,c),
(200,257,o),
(201,209,o),
(200,150,c),
(201,139,o),
(200,117,o),
(200,100,c),
(217,100,o),
(280,100,o),
(300,100,c),
(323,100,o),
(377,100,o),
(400,100,c),
(400,154,o),
(400,357,o),
(400,420,c),
(400,440,o),
(400,473,o),
(400,493,c),
(400,503,o),
(400,523,o),
(400,540,c),
(400,570,o),
(400,673,o),
(400,700,c),
(417,700,o),
(473,700,o),
(500,700,c),
(500,680,o),
(500,627,o),
(500,613,c),
(500,597,o),
(500,500,o),
(500,487,c),
(500,467,o),
(500,130,o),
(500,100,c),
(480,100,o),
(420,100,o),
(400,100,c),
(400,90,o),
(400,63,o),
(400,0,c),
(367,0,o),
(223,0,o),
(200,0,c),
(200,20,o),
(200,73,o),
(200,100,c),
(180,100,o),
(120,100,o),
(100,100,c),
(100,170,o),
(100,370,o),
(100,413,c),
(100,427,o),
(100,437,o),
(100,447,c),
(100,460,o),
(100,497,o),
(100,513,c),
(100,533,o)
);
}
);
width = 600;
},
{
layerId = m002;
shapes = (
{
closed = 1;
nodes = (
(21,563,o),
(27,587,c),
(31,600,o),
(33,624,o),
(43,637,cs),
(60,656,o),
(72,668,o),
(93,680,c),
(102,687,o),
(126,691,o),
(140,690,c),
(157,689,o),
(177,687,o),
(190,683,c),
(234,670,o),
(249,648,o),
(267,617,c),
(275,597,o),
(279,572,o),
(280,550,cs),
(282,526,o),
(278,501,o),
(273,480,c),
(265,422,o),
(251,365,o),
(240,310,c),
(226,252,o),
(204,196,o),
(203,137,cs),
(204,126,o),
(210,111,o),
(217,100,c),
(230,87,o),
(248,94,o),
(263,103,c),
(322,145,o),
(354,207,o),
(377,277,c),
(393,331,o),
(405,387,o),
(420,443,c),
(423,461,o),
(427,480,o),
(430,497,c),
(430,507,o),
(437,523,o),
(423,540,c),
(414,566,o),
(420,593,o),
(443,613,c),
(473,641,o),
(506,653,o),
(543,657,c),
(582,660,o),
(620,645,o),
(637,610,c),
(650,581,o),
(647,555,o),
(633,527,c),
(620,504,o),
(610,478,o),
(603,450,c),
(591,399,o),
(564,340,o),
(540,280,cs),
(510,206,o),
(485,180,o),
(440,117,cs),
(405,69,o),
(344,20,o),
(283,10,c),
(224,-2,o),
(169,12,o),
(130,63,c),
(96,112,o),
(79,168,o),
(97,230,c),
(114,298,o),
(130,365,o),
(147,433,c),
(149,444,o),
(150,451,o),
(133,450,c),
(96,450,o),
(66,467,o),
(40,507,c),
(27,530,o)
);
}
);
width = 627;
}
);
unicode = 85;
},
{
glyphname = V;
lastChange = "2023-04-14 03:34:09 +0000";
layers = (
{
layerId = m01;
shapes = (
{
closed = 1;
nodes = (
(250,7,o),
(250,60,c),
(250,90,o),
(250,80,o),
(250,100,c),
(227,100,o),
(167,100,o),
(150,100,c),
(150,130,o),
(150,274,o),
(150,300,c),
(130,300,o),
(73,300,o),
(50,300,c),
(50,310,o),
(50,377,o),
(50,400,c),
(50,420,o),
(50,577,o),
(50,600,c),
(50,620,o),
(50,670,o),
(50,700,c),
(70,700,o),
(123,700,o),
(150,700,c),
(150,673,o),
(150,427,o),
(150,400,c),
(150,383,o),
(150,307,o),
(150,300,c),
(170,300,o),
(233,300,o),
(250,300,c),
(250,280,o),
(250,299,o),
(250,283,c),
(250,269,o),
(250,277,o),
(250,257,c),
(250,240,o),
(250,234,o),
(250,200,c),
(250,177,o),
(251,117,o),
(250,100,c),
(267,100,o),
(337,100,o),
(350,100,c),
(350,146,o),
(350,260,o),
(350,300,c),
(367,300,o),
(423,300,o),
(450,300,c),
(450,333,o),
(450,510,o),
(450,540,c),
(450,563,o),
(450,670,o),
(450,700,c),
(467,700,o),
(530,700,o),
(550,700,c),
(550,683,o),
(550,623,o),
(550,600,c),
(550,580,o),
(550,520,o),
(550,500,c),
(550,490,o),
(550,480,o),
(550,473,c),
(550,450,o),
(550,320,o),
(550,300,c),
(537,300,o),
(457,300,o),
(450,300,c),
(450,283,o),
(450,130,o),
(450,100,c),
(427,100,o),
(380,100,o),
(350,100,c),
(350,60,o),
(350,47,o),
(350,0,c),
(323,0,o),
(287,0,o),
(250,0,c),
(250,37,o)
);
}
);
width = 600;
},
{
layerId = m002;
shapes = (
{
closed = 1;
nodes = (
(165,124,o),
(170,177,c),
(168,200,o),
(166,222,o),
(167,240,c),
(166,279,o),
(169,316,o),
(167,347,c),
(169,376,o),
(163,397,o),
(163,423,c),
(154,463,o),
(133,463,o),
(113,470,c),
(99,477,o),
(85,486,o),
(73,497,c),
(52,518,o),
(47,557,o),
(50,570,c),
(53,590,o),
(60,617,o),
(77,643,c),
(93,667,o),
(120,677,o),
(147,683,c),
(177,687,o),
(209,678,o),
(227,663,cs),
(255,639,o),
(269,618,o),
(270,590,c),
(270,573,o),
(270,545,o),
(270,540,c),
(268,519,o),
(268,508,o),
(263,490,c),
(262,478,o),
(256,464,o),
(257,440,c),
(252,387,o),
(251,360,o),
(247,327,c),
(247,304,o),
(244,280,o),
(243,263,c),
(243,250,o),
(243,227,o),
(240,213,c),
(270,260,o),
(327,341,o),
(350,380,c),
(361,401,o),
(377,428,o),
(390,450,c),
(407,496,o),
(415,517,o),
(437,560,c),
(454,583,o),
(472,610,o),
(500,630,c),
(513,637,o),
(540,636,o),
(557,633,c),
(580,630,o),
(599,617,o),
(617,603,c),
(635,596,o),
(653,546,o),
(643,517,c),
(639,500,o),
(630,484,o),
(617,470,c),
(594,449,o),
(534,430,o),
(513,447,c),
(510,441,o),
(509,435,o),
(507,433,c),
(491,405,o),
(475,378,o),
(460,350,c),
(430,292,o),
(399,237,o),
(370,183,c),
(346,140,o),
(323,104,o),
(297,60,c),
(273,15,o),
(238,-2,o),
(197,43,c),
(157,77,o)
);
}
);
width = 667;
}
);
unicode = 86;
},
{
glyphname = W;
lastChange = "2023-04-14 01:57:03 +0000";
layers = (
{
layerId = m01;
shapes = (
{
closed = 1;
nodes = (
(50,184,o),
(50,323,o),
(50,337,c),
(50,350,o),
(50,370,o),
(50,380,c),
(50,387,o),
(50,407,o),
(50,417,c),
(50,433,o),
(50,463,o),
(50,473,c),
(50,483,o),
(50,507,o),
(50,520,c),
(51,569,o),
(50,660,o),
(50,700,c),
(70,700,o),
(127,700,o),
(150,700,c),
(150,683,o),
(150,640,o),
(150,620,c),
(150,607,o),
(150,580,o),
(150,563,c),
(150,520,o),
(150,463,o),
(150,420,c),
(150,370,o),
(150,340,o),
(150,280,c),
(150,263,o),
(150,240,o),
(150,230,c),
(150,217,o),
(147,101,o),
(150,100,c),
(160,100,o),
(240,100,o),
(250,100,c),
(277,100,o),
(327,100,o),
(350,100,c),
(350,120,o),
(350,207,o),
(350,220,c),
(350,240,o),
(350,340,o),
(350,347,c),
(350,357,o),
(350,390,o),
(350,400,c),
(357,400,o),
(387,400,o),
(397,400,c),
(407,400,o),
(440,400,o),
(450,400,c),
(450,387,o),
(450,360,o),
(450,323,c),
(450,290,o),
(450,243,o),
(450,200,c),
(450,183,o),
(450,120,o),
(450,100,c),
(467,100,o),
(648,98,o),
(650,100,c),
(650,177,o),
(650,309,o),
(650,403,c),
(650,416,o),
(650,470,o),
(650,490,c),
(650,503,o),
(650,553,o),
(650,557,c),
(650,597,o),
(650,613,o),
(650,627,c),
(650,643,o),
(650,677,o),
(650,700,c),
(684,700,o),
(737,700,o),
(750,700,c),
(750,690,o),
(750,597,o),
(750,593,c),
(750,587,o),
(750,563,o),
(750,553,c),
(750,543,o),
(750,530,o),
(750,520,c),
(750,507,o),
(750,457,o),
(750,433,c),
(750,407,o),
(750,323,o),
(750,300,c),
(750,263,o),
(750,117,o),
(750,100,c),
(733,100,o),
(660,100,o),
(650,100,c),
(650,83,o),
(650,10,o),
(650,0,c),
(640,0,o),
(563,0,o),
(550,0,c),
(543,0,o),
(497,0,o),
(490,0,c),
(487,0,o),
(487,0,o),
(483,0,c),
(476,0,o),
(471,0,o),
(467,0,c),
(464,0,o),
(453,0,o),
(450,0,c),
(450,16,o),
(450,40,o),
(450,50,c),
(450,67,o),
(450,80,o),
(450,100,c),
(413,100,o),
(370,100,o),
(350,100,c),
(350,73,o),
(350,20,o),
(350,0,c),
(333,0,o),
(263,0,o),
(250,0,c),
(234,0,o),
(160,0,o),
(150,0,c),
(150,20,o),
(150,83,o),
(150,100,c),
(140,100,o),
(63,100,o),
(50,100,c)
);
}
);
width = 800;
},
{
layerId = m002;
shapes = (
{
closed = 1;
nodes = (
(169,220,o),
(169,377,o),
(170,387,c),
(164,417,o),
(162,413,o),
(137,407,c),
(117,406,o),
(93,416,o),
(77,430,c),
(58,442,o),
(44,463,o),
(33,483,c),
(24,493,o),
(24,507,o),
(20,517,c),
(22,565,o),
(28,613,o),
(60,637,c),
(78,652,o),
(108,653,o),
(130,647,c),
(158,645,o),
(183,634,o),
(203,620,c),
(218,613,o),
(227,597,o),
(233,580,c),
(258,531,o),
(264,473,o),
(270,417,c),
(273,364,o),
(270,337,o),
(270,280,c),
(270,263,o),
(272,243,o),
(273,233,c),
(272,230,o),
(278,230,o),
(280,230,cs),
(281,231,o),
(281,233,o),
(283,237,c),
(301,272,o),
(318,298,o),
(330,333,c),
(340,351,o),
(336,377,o),
(347,393,c),
(351,410,o),
(365,423,o),
(380,430,c),
(395,437,o),
(408,439,o),
(423,440,c),
(441,439,o),
(461,444,o),
(473,420,c),
(479,412,o),
(483,403,o),
(487,393,c),
(495,360,o),
(499,327,o),
(507,290,c),
(513,257,o),
(521,227,o),
(523,190,c),
(525,187,o),
(525,183,o),
(530,177,cs),
(533,173,o),
(539,187,o),
(540,190,c),
(567,282,o),
(589,364,o),
(613,457,c),
(620,485,o),
(620,518,o),
(623,547,c),
(625,551,o),
(620,555,o),
(620,557,c),
(613,596,o),
(637,613,o),
(653,633,c),
(680,662,o),
(712,676,o),
(747,667,c),
(782,666,o),
(811,653,o),
(823,617,c),
(827,607,o),
(823,587,o),
(823,587,c),
(823,577,o),
(817,563,o),
(810,553,c),
(809,543,o),
(793,518,o),
(767,503,c),
(736,487,o),
(743,450,o),
(730,420,c),
(714,377,o),
(700,331,o),
(683,287,c),
(671,245,o),
(660,205,o),
(643,163,c),
(623,121,o),
(602,78,o),
(577,40,c),
(564,20,o),
(543,0,o),
(520,0,cs),
(513,0,o),
(488,18,o),
(483,23,cs),
(477,30,o),
(462,51,o),
(460,60,c),
(450,109,o),
(441,158,o),
(430,207,c),
(428,225,o),
(424,246,o),
(423,263,c),
(420,265,o),
(414,267,o),
(410,260,c),
(407,257,o),
(401,247,o),
(397,240,c),
(377,208,o),
(376,194,o),
(357,163,c),
(343,135,o),
(328,109,o),
(313,83,c),
(296,63,o),
(278,41,o),
(260,23,c),
(256,19,o),
(244,22,o),
(237,23,c),
(222,30,o),
(209,37,o),
(200,47,c),
(188,59,o),
(176,74,o),
(173,90,c),
(167,105,o),
(172,124,o),
(173,140,c)
);
}
);
width = 790;
}
);
unicode = 87;
},
{
glyphname = X;
lastChange = "2023-04-14 02:44:26 +0000";
layers = (
{
layerId = m01;
shapes = (
{
closed = 1;
nodes = (
(453,100,o),
(417,100,o),
(400,100,c),
(400,130,o),
(403,277,o),
(400,300,c),
(387,300,o),
(317,300,o),
(300,300,c),
(297,301,o),
(301,102,o),
(300,100,c),
(267,100,o),
(227,100,o),
(200,100,c),
(200,73,o),
(200,17,o),
(200,0,c),
(164,2,o),
(120,0,o),
(100,0,c),
(100,27,o),
(100,83,o),
(100,100,c),
(100,117,o),
(100,180,o),
(100,200,c),
(127,200,o),
(183,200,o),
(200,200,c),
(200,217,o),
(200,287,o),
(200,300,c),
(220,300,o),
(280,300,o),
(300,300,c),
(300,298,o),
(300,390,o),
(300,400,c),
(287,400,o),
(220,400,o),
(200,400,c),
(200,410,o),
(203,492,o),
(200,500,c),
(177,500,o),
(127,497,o),
(100,500,c),
(100,510,o),
(100,540,o),
(100,560,c),
(100,570,o),
(100,583,o),
(100,600,c),
(100,607,o),
(100,610,o),
(100,623,c),
(100,633,o),
(100,650,o),
(100,663,c),
(100,680,o),
(100,690,o),
(100,700,c),
(140,700,o),
(173,700,o),
(200,700,c),
(200,677,o),
(200,623,o),
(200,600,c),
(233,600,o),
(277,600,o),
(300,600,c),
(300,583,o),
(300,407,o),
(300,400,c),
(313,400,o),
(383,400,o),
(400,400,c),
(400,413,o),
(400,443,o),
(400,460,c),
(400,470,o),
(400,523,o),
(400,540,c),
(400,553,o),
(400,590,o),
(400,600,c),
(420,600,o),
(470,600,o),
(500,600,c),
(500,627,o),
(500,680,o),
(500,700,c),
(530,700,o),
(580,700,o),
(600,700,c),
(601,690,o),
(600,610,o),
(600,600,c),
(600,577,o),
(600,520,o),
(600,500,c),
(573,500,o),
(517,500,o),
(500,500,c),
(500,483,o),
(500,423,o),
(500,400,c),
(450,400,o),
(423,400,o),
(400,400,c),
(400,397,o),
(400,303,o),
(400,300,c),
(417,300,o),
(480,300,o),
(500,300,c),
(500,277,o),
(500,210,o),
(500,200,c),
(513,200,o),
(593,200,o),
(600,200,c),
(600,183,o),
(600,20,o),
(600,0,c),
(583,0,o),
(513,0,o),
(500,0,c),
(500,23,o),
(500,93,o),
(500,100,c)
);
}
);
width = 600;
},
{
layerId = m002;
shapes = (
{
closed = 1;
nodes = (
(560,-1,o),
(505,24,o),
(460,70,c),
(446,86,o),
(443,111,o),
(433,130,c),
(426,148,o),
(416,164,o),
(407,180,c),
(406,182,o),
(400,183,o),
(397,180,c),
(350,149,o),
(305,111,o),
(253,87,c),
(218,68,o),
(173,57,o),
(133,60,c),
(96,63,o),
(60,87,o),
(27,107,c),
(17,110,o),
(10,129,o),
(10,143,c),
(11,155,o),
(20,169,o),
(27,180,c),
(40,204,o),
(64,204,o),
(87,203,c),
(105,206,o),
(126,210,o),
(143,203,c),
(162,199,o),
(178,182,o),
(197,170,c),
(199,169,o),
(209,172,o),
(213,177,c),
(256,209,o),
(298,243,o),
(340,277,c),
(344,282,o),
(345,297,o),
(343,303,c),
(323,338,o),
(303,373,o),
(283,407,c),
(274,422,o),
(265,429,o),
(247,420,c),
(204,397,o),
(153,405,o),
(120,443,c),
(105,460,o),
(93,476,o),
(80,493,c),
(69,507,o),
(72,546,o),
(83,557,c),
(106,580,o),
(135,589,o),
(167,597,c),
(205,603,o),
(245,603,o),
(280,580,c),
(300,569,o),
(314,547,o),
(330,527,c),
(355,495,o),
(379,460,o),
(403,427,c),
(410,419,o),
(416,411,o),
(423,403,c),
(424,402,o),
(429,402,o),
(430,403,c),
(442,420,o),
(453,438,o),
(467,453,c),
(475,468,o),
(485,482,o),
(497,497,c),
(507,510,o),
(517,528,o),
(530,537,c),
(559,557,o),
(589,576,o),
(620,587,c),
(644,592,o),
(676,589,o),
(697,577,c),
(721,564,o),
(740,538,o),
(757,513,c),
(760,505,o),
(748,482,o),
(737,470,c),
(723,454,o),
(705,438,o),
(687,427,c),
(677,422,o),
(659,424,o),
(647,430,c),
(620,441,o),
(611,440,o),
(593,413,c),
(562,368,o),
(531,323,o),
(500,277,c),
(499,275,o),
(499,271,o),
(500,267,c),
(520,229,o),
(541,189,o),
(560,150,c),
(572,131,o),
(588,144,o),
(600,143,c),
(622,143,o),
(644,145,o),
(663,143,c),
(686,141,o),
(725,94,o),
(720,73,c),
(716,60,o),
(702,49,o),
(693,37,c),
(677,13,o),
(654,3,o),
(627,3,c)
);
}
);
width = 797;
}
);
unicode = 88;
},
{
glyphname = Y;
lastChange = "2023-04-14 02:14:00 +0000";
layers = (
{
layerId = m01;
shapes = (
{
closed = 1;
nodes = (
(200,370,o),
(200,400,c),
(201,400,o),
(117,400,o),
(100,400,c),
(100,413,o),
(100,493,o),
(100,500,c),
(100,510,o),
(100,557,o),
(100,567,c),
(100,573,o),
(100,583,o),
(100,600,c),
(100,623,o),
(100,673,o),
(100,700,c),
(130,700,o),
(175,700,o),
(200,700,c),
(200,680,o),
(200,660,o),
(200,637,c),
(200,617,o),
(200,520,o),
(200,500,c),
(200,470,o),
(200,447,o),
(200,400,c),
(217,400,o),
(290,400,o),
(300,400,c),
(307,400,o),
(313,400,o),
(323,400,c),
(328,400,o),
(387,400,o),
(400,400,c),
(400,413,o),
(400,457,o),
(400,480,c),
(400,493,o),
(400,503,o),
(400,513,c),
(400,530,o),
(400,557,o),
(400,573,c),
(400,583,o),
(400,690,o),
(400,700,c),
(413,700,o),
(470,700,o),
(500,700,c),
(500,683,o),
(500,637,o),
(500,627,c),
(500,613,o),
(500,597,o),
(500,583,c),
(500,570,o),
(500,513,o),
(500,500,c),
(500,487,o),
(500,443,o),
(500,427,c),
(500,413,o),
(500,387,o),
(500,363,c),
(500,350,o),
(500,320,o),
(500,303,c),
(500,283,o),
(500,267,o),
(500,260,c),
(500,247,o),
(500,233,o),
(500,217,c),
(500,200,o),
(500,193,o),
(500,183,c),
(500,160,o),
(500,147,o),
(500,100,c),
(477,100,o),
(427,100,o),
(400,100,c),
(400,80,o),
(400,20,o),
(400,0,c),
(383,0,o),
(213,0,o),
(200,0,c),
(200,13,o),
(200,90,o),
(200,100,c),
(187,100,o),
(117,100,o),
(100,100,c),
(100,117,o),
(100,130,o),
(100,137,c),
(100,143,o),
(100,190,o),
(100,200,c),
(113,200,o),
(190,200,o),
(200,200,c),
(200,217,o),
(200,113,o),
(200,100,c),
(220,100,o),
(363,100,o),
(400,100,c),
(400,123,o),
(403,257,o),
(400,300,c),
(383,300,o),
(213,300,o),
(200,300,c),
(200,313,o)
);
}
);
width = 600;
},
{
layerId = m002;
shapes = (
{
closed = 1;
nodes = (
(211,477,o),
(203,510,c),
(205,509,o),
(197,512,o),
(197,513,c),
(168,491,o),
(141,495,o),
(113,507,c),
(88,523,o),
(77,542,o),
(67,560,c),
(50,593,o),
(70,616,o),
(83,640,c),
(95,657,o),
(120,661,o),
(133,663,cs),
(160,670,o),
(179,666,o),
(203,667,c),
(236,668,o),
(288,646,o),
(300,620,c),
(307,597,o),
(318,579,o),
(323,557,c),
(328,517,o),
(332,485,o),
(333,440,cs),
(332,423,o),
(332,409,o),
(333,387,cs),
(332,379,o),
(334,369,o),
(343,370,cs),
(349,369,o),
(364,390,o),
(373,400,c),
(392,418,o),
(398,432,o),
(417,457,c),
(429,471,o),
(443,492,o),
(460,510,c),
(471,524,o),
(485,539,o),
(493,557,c),
(499,565,o),
(500,572,o),
(500,580,c),
(499,610,o),
(530,647,o),
(560,650,c),
(577,654,o),
(600,656,o),
(623,657,c),
(654,657,o),
(697,621,o),
(687,593,c),
(680,567,o),
(660,549,o),
(640,533,c),
(618,516,o),
(599,498,o),
(580,477,c),
(555,456,o),
(530,430,o),
(510,407,c),
(494,390,o),
(481,374,o),
(463,357,c),
(442,329,o),
(407,310,o),
(383,280,c),
(372,267,o),
(367,241,o),
(360,223,c),
(356,208,o),
(355,196,o),
(353,183,c),
(350,158,o),
(350,144,o),
(347,97,c),
(356,98,o),
(359,91,o),
(363,87,c),
(376,72,o),
(376,56,o),
(370,40,c),
(366,21,o),
(338,11,o),
(320,3,c),
(297,-4,o),
(259,0,o),
(240,0,c),
(220,0,o),
(204,16,o),
(190,33,c),
(174,51,o),
(172,109,o),
(200,117,c),
(203,117,o),
(217,119,o),
(223,123,c),
(231,127,o),
(241,131,o),
(240,137,c),
(241,153,o),
(241,170,o),
(247,183,c),
(247,199,o),
(252,214,o),
(257,233,c),
(262,256,o),
(273,304,o),
(270,323,c),
(266,367,o),
(252,379,o),
(237,417,c),
(236,420,o)
);
}
);
width = 660;
}
);
unicode = 89;
},
{
glyphname = Z;
lastChange = "2023-04-14 03:14:31 +0000";
layers = (
{
layerId = m01;
shapes = (
{
closed = 1;
nodes = (
(150,200,o),
(150,290,o),
(150,300,c),
(163,300,o),
(223,300,o),
(250,300,c),
(250,317,o),
(250,380,o),
(250,400,c),
(270,400,o),
(333,400,o),
(350,400,c),
(350,417,o),
(350,460,o),
(350,467,c),
(350,477,o),
(350,487,o),
(350,500,c),
(360,500,o),
(443,500,o),
(450,500,c),
(450,547,o),
(450,593,o),
(450,600,c),
(427,600,o),
(300,600,o),
(273,600,c),
(240,600,o),
(113,600,o),
(97,600,c),
(73,600,o),
(63,600,o),
(53,600,c),
(53,620,o),
(53,627,o),
(53,640,c),
(53,659,o),
(53,650,o),
(53,670,c),
(53,677,o),
(53,680,o),
(53,700,c),
(86,699,o),
(207,700,o),
(227,700,c),
(237,700,o),
(253,700,o),
(267,700,c),
(277,700,o),
(290,700,o),
(307,700,c),
(323,700,o),
(357,700,o),
(387,700,c),
(403,700,o),
(537,700,o),
(550,700,c),
(550,683,o),
(550,627,o),
(550,600,c),
(550,590,o),
(550,583,o),
(550,577,c),
(550,537,o),
(550,533,o),
(550,500,c),
(520,500,o),
(473,500,o),
(450,500,c),
(450,470,o),
(450,430,o),
(450,400,c),
(410,400,o),
(377,400,o),
(350,400,c),
(350,390,o),
(350,313,o),
(350,300,c),
(337,300,o),
(260,300,o),
(250,300,c),
(250,287,o),
(250,217,o),
(250,200,c),
(223,200,o),
(173,200,o),
(150,200,c),
(150,170,o),
(150,123,o),
(150,100,c),
(177,100,o),
(537,100,o),
(550,100,c),
(550,67,o),
(550,24,o),
(550,0,c),
(510,0,o),
(427,0,o),
(407,0,c),
(401,1,o),
(377,0,o),
(363,0,c),
(340,0,o),
(303,0,o),
(277,0,c),
(263,0,o),
(243,0,o),
(233,0,c),
(213,0,o),
(80,0,o),
(50,0,c),
(50,10,o),
(50,83,o),
(50,100,c),
(50,123,o),
(50,123,o),
(50,150,c),
(50,163,o),
(50,180,o),
(50,200,c),
(150,200,l)
);
}
);
width = 600;
},
{
layerId = m002;
shapes = (
{
closed = 1;
nodes = (
(3,155,o),
(6,176,o),
(13,183,c),
(27,212,o),
(38,216,o),
(67,220,c),
(89,222,o),
(112,215,o),
(133,213,c),
(143,215,o),
(157,219,o),
(167,227,c),
(223,283,o),
(280,338,o),
(333,393,c),
(354,413,o),
(372,432,o),
(390,450,c),
(400,460,o),
(422,480,o),
(427,487,c),
(420,490,o),
(398,482,o),
(390,483,c),
(352,477,o),
(311,469,o),
(273,463,c),
(244,457,o),
(216,447,o),
(190,437,c),
(156,426,o),
(125,429,o),
(100,457,c),
(71,481,o),
(55,510,o),
(50,550,c),
(50,569,o),
(53,590,o),
(53,610,c),
(56,614,o),
(81,653,o),
(123,653,c),
(156,653,o),
(180,644,o),
(200,640,c),
(214,637,o),
(226,631,o),
(240,623,cs),
(252,620,o),
(251,613,o),
(267,610,c),
(298,607,o),
(330,602,o),
(363,600,c),
(368,599,o),
(406,601,o),
(413,603,c),
(446,609,o),
(453,608,o),
(483,623,c),
(530,643,o),
(602,628,o),
(630,570,c),
(653,528,o),
(646,487,o),
(610,463,c),
(584,451,o),
(557,446,o),
(537,430,c),
(494,392,o),
(455,347,o),
(413,307,c),
(367,265,o),
(322,224,o),
(277,183,c),
(275,182,o),
(274,178,o),
(273,177,c),
(274,176,o),
(276,175,o),
(277,173,c),
(321,170,o),
(364,166,o),
(410,160,c),
(426,158,o),
(443,154,o),
(457,150,c),
(464,151,o),
(469,153,o),
(470,153,c),
(538,204,o),
(608,186,o),
(650,107,c),
(670,74,o),
(657,24,o),
(623,0,c),
(585,-8,o),
(561,-13,o),
(510,7,c),
(503,8,o),
(490,24,o),
(483,33,c),
(461,63,o),
(431,64,o),
(403,70,c),
(367,71,o),
(331,72,o),
(293,77,c),
(267,75,o),
(237,76,o),
(207,73,c),
(196,69,o),
(186,52,o),
(173,43,c),
(141,21,o),
(75,34,o),
(47,73,c),
(35,86,o),
(27,96,o),
(17,117,c),
(7,137,l)
);
}
);
width = 670;
}
);
unicode = 90;
},
{
glyphname = zero;
lastChange = "2023-04-22 00:17:12 +0000";
layers = (
{
layerId = m01;
shapes = (
{
closed = 1;
nodes = (
(100,147,o),
(100,110,o),
(100,100,c),
(134,100,o),
(467,100,o),
(500,100,c),
(500,147,o),
(500,300,o),
(500,327,c),
(500,363,o),
(500,560,o),
(500,600,c),
(490,600,o),
(413,600,o),
(387,600,c),
(353,600,o),
(120,600,o),
(100,600,c),
(100,587,o),
(100,520,o),
(100,500,c),
(100,470,o),
(100,397,o),
(100,373,c),
(100,357,o),
(100,247,o),
(100,200,c)
);
},
{
closed = 1;
nodes = (
(600,237,o),
(600,143,o),
(600,100,c),
(550,100,o),
(517,100,o),
(500,100,c),
(500,83,o),
(500,23,o),
(500,0,c),
(443,0,o),
(130,0,o),
(100,0,c),
(100,20,o),
(100,77,o),
(100,100,c),
(73,100,o),
(20,100,o),
(0,100,c),
(0,123,o),
(0,287,o),
(0,307,c),
(0,363,o),
(0,467,o),
(0,500,c),
(0,523,o),
(0,577,o),
(0,600,c),
(17,600,o),
(60,600,o),
(100,600,c),
(100,620,o),
(100,667,o),
(100,700,c),
(130,700,o),
(276,698,o),
(300,700,c),
(333,700,o),
(473,700,o),
(500,700,c),
(500,677,o),
(500,633,o),
(500,600,c),
(523,600,o),
(573,600,o),
(600,600,c),
(600,570,o),
(600,527,o),
(600,500,c),
(600,483,o),
(600,447,o),
(600,430,c),
(600,413,o),
(600,400,o),
(600,393,c),
(600,373,o),
(599,284,o),
(600,273,c)
);
}
);
width = 650;
},
{
layerId = m002;
shapes = (
{
closed = 1;
nodes = (
(159,136,o),
(214,85,o),
(273,107,c),
(314,123,o),
(348,152,o),
(367,197,c),
(388,246,o),
(406,296,o),
(427,347,c),
(442,389,o),
(425,430,o),
(420,470,c),
(416,493,o),
(394,516,o),
(370,503,c),
(343,496,o),
(332,491,o),
(313,490,c),
(300,488,o),
(289,486,o),
(283,480,c),
(252,449,o),
(220,418,o),
(197,380,c),
(160,330,o),
(161,267,o),
(160,187,c)
);
},
{
closed = 1;
nodes = (
(576,280,o),
(556,241,o),
(520,180,c),
(493,128,o),
(460,80,o),
(427,33,c),
(415,18,o),
(394,2,o),
(377,0,c),
(333,-4,o),
(288,-7,o),
(247,3,c),
(207,11,o),
(166,28,o),
(137,53,c),
(77,107,o),
(27,170,o),
(7,253,c),
(2,270,o),
(7,290,o),
(10,307,c),
(11,334,o),
(8,363,o),
(17,387,c),
(31,426,o),
(47,467,o),
(70,500,c),
(100,539,o),
(139,570,o),
(173,607,c),
(192,625,o),
(207,651,o),
(227,667,c),
(247,680,o),
(273,688,o),
(297,690,c),
(330,689,o),
(364,683,o),
(397,677,c),
(419,672,o),
(440,664,o),
(443,630,c),
(445,619,o),
(492,596,o),
(510,567,c),
(523,547,o),
(540,528,o),
(550,503,c),
(552,498,o),
(566,463,o),
(570,457,c),
(572,452,o),
(576,421,o),
(577,413,c),
(578,404,o),
(579,364,o),
(580,353,c)
);
}
);
width = 600;
}
);
unicode = 48;
},
{
glyphname = one;
lastChange = "2023-04-20 18:30:05 +0000";
layers = (
{
layerId = m01;
shapes = (
{
closed = 1;
nodes = (
(300,570,o),
(300,600,c),
(290,600,o),
(220,600,o),
(200,600,c),
(200,610,o),
(200,677,o),
(200,700,c),
(217,700,o),
(237,700,o),
(263,700,c),
(287,700,o),
(380,700,o),
(400,700,c),
(400,677,o),
(400,640,o),
(400,610,c),
(400,580,o),
(400,537,o),
(400,510,c),
(400,487,o),
(400,448,o),
(400,417,c),
(400,337,o),
(400,259,o),
(400,177,c),
(399,172,o),
(400,120,o),
(400,100,c),
(407,100,o),
(420,100,o),
(433,100,c),
(460,100,o),
(483,100,o),
(500,100,c),
(500,63,o),
(500,23,o),
(500,0,c),
(483,0,o),
(417,0,o),
(403,0,c),
(383,0,o),
(347,0,o),
(300,0,c),
(280,0,o),
(207,0,o),
(200,0,c),
(200,10,o),
(200,33,o),
(200,47,c),
(200,53,o),
(200,73,o),
(200,83,c),
(200,87,o),
(200,93,o),
(200,100,c),
(227,100,o),
(270,100,o),
(300,100,c),
(300,110,o),
(300,133,o),
(300,140,c),
(300,153,o),
(300,169,o),
(300,180,c),
(300,263,o),
(300,277,o),
(300,380,c),
(300,400,o),
(300,420,o),
(300,427,c),
(300,443,o),
(300,460,o),
(300,470,c),
(300,480,o),
(300,493,o),
(300,500,c),
(300,507,o)
);
}
);
width = 600;
},
{
layerId = m002;
shapes = (
{
closed = 1;
nodes = (
(128,485,o),
(137,513,c),
(137,522,o),
(152,550,o),
(157,560,c),
(162,565,o),
(180,603,o),
(187,623,c),
(193,648,o),
(241,671,o),
(267,663,c),
(279,660,o),
(293,660,o),
(307,663,c),
(344,673,o),
(387,637,o),
(397,607,c),
(408,573,o),
(401,543,o),
(387,510,c),
(376,482,o),
(377,448,o),
(377,417,c),
(375,336,o),
(357,255,o),
(357,173,c),
(356,168,o),
(355,162,o),
(353,147,c),
(366,166,o),
(419,167,o),
(460,167,cs),
(487,167,o),
(512,140,o),
(517,110,c),
(530,71,o),
(527,63,o),
(507,37,c),
(478,2,o),
(436,-2,o),
(403,23,c),
(355,61,o),
(305,78,o),
(250,70,c),
(232,65,o),
(215,55,o),
(197,47,c),
(165,27,o),
(135,38,o),
(110,60,c),
(89,80,o),
(66,102,o),
(53,130,c),
(43,171,o),
(73,218,o),
(110,220,c),
(138,222,o),
(164,216,o),
(190,207,c),
(210,197,o),
(249,158,o),
(260,150,c),
(262,160,o),
(267,169,o),
(267,180,c),
(270,280,o),
(273,381,o),
(277,483,c),
(276,487,o),
(272,494,o),
(270,493,c),
(244,491,o),
(244,467,o),
(223,453,c),
(219,449,o),
(206,455,o),
(197,457,c),
(165,468,o)
);
}
);
width = 600;
}
);
unicode = 49;
},
{
glyphname = two;
lastChange = "2023-04-21 15:59:48 +0000";
layers = (
{
layerId = m01;
shapes = (
{
closed = 1;
nodes = (
(387,200,o),
(237,200,o),
(200,200,c),
(200,193,o),
(200,120,o),
(200,100,c),
(233,100,o),
(483,100,o),
(500,100,c),
(500,83,o),
(500,67,o),
(500,50,c),
(500,40,o),
(500,17,o),
(500,0,c),
(479,-2,o),
(460,0,o),
(447,0,c),
(433,0,o),
(413,0,o),
(400,0,c),
(390,0,o),
(357,0,o),
(330,0,c),
(307,0,o),
(230,0,o),
(200,0,c),
(180,0,o),
(113,0,o),
(100,0,c),
(100,20,o),
(100,87,o),
(100,100,c),
(100,113,o),
(102,175,o),
(100,200,c),
(113,200,o),
(173,200,o),
(200,200,c),
(200,223,o),
(200,283,o),
(200,300,c),
(227,300,o),
(383,300,o),
(400,300,c),
(400,347,o),
(400,560,o),
(400,600,c),
(380,600,o),
(333,600,o),
(320,600,c),
(297,600,o),
(273,600,o),
(260,600,c),
(253,600,o),
(237,600,o),
(233,600,c),
(223,600,o),
(217,600,o),
(190,600,c),
(173,600,o),
(153,600,o),
(140,600,c),
(130,600,o),
(120,600,o),
(100,600,c),
(100,618,o),
(100,687,o),
(100,700,c),
(120,700,o),
(190,700,o),
(200,700,c),
(217,700,o),
(387,700,o),
(400,700,c),
(400,680,o),
(400,620,o),
(400,600,c),
(420,600,o),
(490,600,o),
(500,600,c),
(500,541,o),
(500,333,o),
(500,300,c),
(473,300,o),
(424,300,o),
(400,300,c),
(400,290,o),
(399,199,o),
(400,200,c)
);
}
);
width = 600;
},
{
layerId = m002;
shapes = (
{
closed = 1;
nodes = (
(350,195,o),
(385,171,o),
(423,167,c),
(449,164,o),
(475,179,o),
(490,180,cs),
(523,179,o),
(534,167,o),
(547,150,cs),
(571,116,o),
(561,111,o),
(550,67,c),
(546,63,o),
(527,27,o),
(517,27,c),
(498,25,o),
(479,23,o),
(460,33,c),
(435,49,o),
(426,65,o),
(413,83,c),
(396,98,o),
(375,114,o),
(350,120,c),
(312,127,o),
(267,132,o),
(233,97,c),
(204,64,o),
(169,61,o),
(130,67,c),
(115,67,o),
(100,83,o),
(87,97,c),
(71,118,o),
(55,139,o),
(53,163,c),
(43,190,o),
(83,228,o),
(113,233,c),
(163,237,o),
(204,257,o),
(243,297,c),
(291,346,o),
(315,405,o),
(330,467,c),
(338,513,o),
(333,560,o),
(310,600,c),
(294,617,o),
(254,619,o),
(243,603,c),
(238,597,o),
(239,589,o),
(247,583,c),
(277,557,o),
(267,497,o),
(253,463,c),
(228,391,o),
(177,381,o),
(120,383,c),
(106,382,o),
(88,408,o),
(70,427,c),
(40,467,o),
(37,486,o),
(37,537,cs),
(37,555,o),
(68,589,o),
(77,593,c),
(116,626,o),
(152,656,o),
(197,680,cs),
(209,687,o),
(236,688,o),
(243,690,cs),
(311,706,o),
(362,670,o),
(413,620,c),
(450,579,o),
(451,520,o),
(453,463,c),
(454,405,o),
(430,357,o),
(407,310,c),
(380,273,o),
(344,244,o),
(313,213,c),
(311,206,o),
(310,202,o),
(310,203,c)
);
}
);
width = 600;
}
);
unicode = 50;
},
{
glyphname = three;
lastChange = "2023-04-22 00:25:29 +0000";
layers = (
{
layerId = m01;
shapes = (
{
closed = 1;
nodes = (
(100,677,o),
(100,700,c),
(123,700,o),
(173,700,o),
(200,700,c),
(230,700,o),
(254,699,o),
(277,700,c),
(310,700,o),
(377,700,o),
(400,700,c),
(400,667,o),
(400,624,o),
(400,600,c),
(437,600,o),
(477,600,o),
(500,600,c),
(500,530,o),
(500,327,o),
(500,300,c),
(497,300,o),
(417,300,o),
(400,300,c),
(400,277,o),
(400,223,o),
(400,200,c),
(417,200,o),
(483,200,o),
(500,200,c),
(500,127,o),
(500,123,o),
(500,100,c),
(480,100,o),
(430,100,o),
(400,100,c),
(400,90,o),
(400,17,o),
(400,0,c),
(380,0,o),
(122,0,o),
(100,0,c),
(100,13,o),
(100,86,o),
(100,100,c),
(110,100,o),
(123,100,o),
(133,100,c),
(143,100,o),
(177,100,o),
(200,100,c),
(210,100,o),
(384,100,o),
(400,100,c),
(400,113,o),
(400,190,o),
(400,200,c),
(387,200,o),
(310,200,o),
(300,200,c),
(287,200,o),
(260,200,o),
(250,200,c),
(233,200,o),
(213,200,o),
(200,200,c),
(200,217,o),
(200,287,o),
(200,300,c),
(216,300,o),
(343,300,o),
(353,300,c),
(370,300,o),
(383,300,o),
(400,300,c),
(400,310,o),
(400,326,o),
(400,333,c),
(400,339,o),
(400,373,o),
(400,380,c),
(400,390,o),
(400,404,o),
(400,417,c),
(400,430,o),
(400,450,o),
(400,460,c),
(400,467,o),
(400,490,o),
(400,493,c),
(400,500,o),
(400,513,o),
(400,523,c),
(400,533,o),
(400,557,o),
(400,567,c),
(400,574,o),
(400,590,o),
(400,600,c),
(390,600,o),
(360,600,o),
(350,600,c),
(337,600,o),
(317,600,o),
(300,600,c),
(287,600,o),
(253,600,o),
(230,600,c),
(213,600,o),
(117,600,o),
(100,600,c),
(100,610,o),
(100,643,o),
(100,657,c),
(100,670,o)
);
}
);
width = 600;
},
{
layerId = m002;
shapes = (
{
closed = 1;
nodes = (
(61,647,o),
(117,637,c),
(140,640,o),
(165,649,o),
(183,653,c),
(212,659,o),
(237,669,o),
(260,670,c),
(294,677,o),
(327,684,o),
(353,673,c),
(398,661,o),
(440,637,o),
(477,610,c),
(510,591,o),
(531,559,o),
(527,517,c),
(510,456,o),
(482,398,o),
(430,357,c),
(427,357,o),
(427,351,o),
(430,347,c),
(477,320,o),
(527,290,o),
(557,240,c),
(567,227,o),
(566,203,o),
(563,183,c),
(556,109,o),
(502,69,o),
(440,33,c),
(437,28,o),
(355,21,o),
(327,23,c),
(297,26,o),
(270,38,o),
(243,40,c),
(223,45,o),
(202,40,o),
(180,40,c),
(163,49,o),
(141,56,o),
(123,70,c),
(100,86,o),
(77,106,o),
(57,127,c),
(51,136,o),
(56,153,o),
(57,167,c),
(59,176,o),
(61,191,o),
(67,193,c),
(91,208,o),
(139,225,o),
(170,220,c),
(214,220,o),
(236,202,o),
(250,157,c),
(254,135,o),
(261,115,o),
(287,117,c),
(310,117,o),
(329,109,o),
(347,110,c),
(384,123,o),
(414,147,o),
(430,180,c),
(438,198,o),
(439,219,o),
(440,240,c),
(438,245,o),
(424,252,o),
(417,257,c),
(402,267,o),
(389,278,o),
(370,283,c),
(363,283,o),
(357,283,o),
(353,273,c),
(342,251,o),
(316,246,o),
(290,237,c),
(243,221,o),
(222,253,o),
(203,287,c),
(194,307,o),
(178,321,o),
(173,340,c),
(164,361,o),
(194,393,o),
(220,390,c),
(264,393,o),
(303,406,o),
(333,440,c),
(352,466,o),
(369,491,o),
(383,517,c),
(404,550,o),
(387,584,o),
(347,590,c),
(312,605,o),
(261,620,o),
(267,560,c),
(275,521,o),
(257,490,o),
(227,467,c),
(188,435,o),
(166,434,o),
(123,460,c),
(105,477,o),
(92,497,o),
(80,513,c),
(60,563,o)
);
}
);
width = 600;
}
);
unicode = 51;
},
{
glyphname = four;
lastChange = "2023-04-21 17:52:47 +0000";
layers = (
{
layerId = m01;
shapes = (
{
closed = 1;
nodes = (
(300,300,c),
(300,313,o),
(300,320,o),
(300,330,c),
(300,337,o),
(300,357,o),
(300,367,c),
(300,373,o),
(300,390,o),
(300,400,c),
(307,400,o),
(333,400,o),
(337,400,c),
(343,400,o),
(350,400,o),
(353,400,c),
(360,400,o),
(390,400,o),
(400,400,c),
(400,390,o),
(400,310,o),
(400,300,c),
(410,300,o),
(417,300,o),
(427,300,c),
(437,300,o),
(493,300,o),
(500,300,c),
(500,273,o),
(500,220,o),
(500,200,c),
(483,200,o),
(463,200,o),
(447,200,c),
(443,200,o),
(437,200,o),
(430,200,c),
(423,200,o),
(417,200,o),
(417,200,c),
(413,200,o),
(410,200,o),
(400,200,c),
(400,183,o),
(400,113,o),
(400,100,c),
(400,80,o),
(400,30,o),
(400,0,c),
(360,0,o),
(317,0,o),
(300,0,c),
(300,33,o),
(300,77,o),
(300,93,c),
(300,107,o),
(300,123,o),
(300,137,c),
(300,143,o),
(300,150,o),
(300,170,c),
(300,177,o),
(300,166,o),
(300,200,c),
(280,200,o),
(257,200,o),
(247,200,c),
(223,200,o),
(187,200,o),
(173,200,c),
(147,200,o),
(117,200,o),
(100,200,c),
(100,213,o),
(100,250,o),
(100,260,c),
(100,273,o),
(100,307,o),
(100,317,c),
(100,340,o),
(100,357,o),
(100,367,c),
(100,377,o),
(100,383,o),
(100,393,c),
(100,400,o),
(100,410,o),
(100,417,c),
(100,437,o),
(100,447,o),
(100,457,c),
(100,483,o),
(100,510,o),
(100,520,c),
(100,527,o),
(100,547,o),
(100,557,c),
(100,590,o),
(100,680,o),
(100,700,c),
(120,700,o),
(157,700,o),
(200,700,c),
(200,693,o),
(200,690,o),
(200,677,c),
(200,663,o),
(200,630,o),
(200,600,c),
(200,583,o),
(200,557,o),
(200,540,c),
(200,520,o),
(200,497,o),
(200,480,c),
(200,463,o),
(200,407,o),
(200,383,c),
(200,376,o),
(200,317,o),
(200,300,c),
(203,300,o),
(264,300,o)
);
}
);
width = 600;
},
{
layerId = m002;
shapes = (
{
closed = 1;
nodes = (
(303,350,c),
(307,353,o),
(313,363,o),
(313,373,c),
(310,380,o),
(300,387,o),
(300,397,c),
(297,403,o),
(303,417,o),
(310,423,c),
(317,437,o),
(327,453,o),
(347,447,c),
(357,443,o),
(367,430,o),
(370,420,c),
(377,407,o),
(380,387,o),
(387,377,c),
(390,373,o),
(400,370,o),
(407,373,c),
(430,383,o),
(513,373,o),
(530,353,c),
(543,337,o),
(563,317,o),
(567,293,c),
(573,263,o),
(550,237,o),
(523,230,c),
(460,218,o),
(478,225,o),
(423,257,c),
(410,260,o),
(393,263,o),
(380,273,c),
(380,267,o),
(377,263,o),
(377,263,c),
(377,223,o),
(373,187,o),
(373,150,c),
(373,133,o),
(380,117,o),
(387,100,c),
(400,63,o),
(397,20,o),
(377,0,c),
(340,-33,o),
(287,-13,o),
(260,27,c),
(240,63,o),
(247,97,o),
(253,133,c),
(257,137,o),
(267,143,o),
(273,147,c),
(293,143,o),
(300,150,o),
(300,170,c),
(303,203,o),
(307,233,o),
(307,267,c),
(307,267,o),
(300,273,o),
(300,277,c),
(257,267,o),
(217,260,o),
(177,250,c),
(153,247,o),
(130,230,o),
(107,233,c),
(90,233,o),
(73,253,o),
(60,270,c),
(46,282,o),
(29,298,o),
(27,317,c),
(26,332,o),
(26,350,o),
(30,370,c),
(37,393,o),
(50,430,o),
(77,403,c),
(93,397,o),
(107,393,o),
(123,390,c),
(147,387,o),
(170,407,o),
(180,433,c),
(190,460,o),
(200,483,o),
(207,513,c),
(210,520,o),
(210,537,o),
(203,547,c),
(163,580,o),
(170,640,o),
(197,687,c),
(217,717,o),
(247,720,o),
(293,703,c),
(310,697,o),
(333,693,o),
(343,677,c),
(357,663,o),
(357,633,o),
(363,610,c),
(373,570,o),
(340,557,o),
(320,530,c),
(310,513,o),
(303,493,o),
(293,477,c),
(277,440,o),
(260,403,o),
(240,367,c),
(240,360,o),
(237,357,o),
(237,350,c),
(240,350,o),
(267,350,o)
);
}
);
width = 600;
}
);
unicode = 52;
},
{
glyphname = five;
lastChange = "2023-04-21 19:49:28 +0000";
layers = (
{
layerId = m01;
shapes = (
{
closed = 1;
nodes = (
(297,200,o),
(243,200,o),
(233,200,c),
(207,200,o),
(163,200,o),
(150,200,c),
(133,200,o),
(110,200,o),
(100,200,c),
(100,220,o),
(100,347,o),
(100,357,c),
(100,367,o),
(100,393,o),
(100,403,c),
(100,410,o),
(100,417,o),
(100,423,c),
(100,437,o),
(100,447,o),
(100,463,c),
(100,473,o),
(100,487,o),
(100,500,c),
(100,517,o),
(100,580,o),
(100,600,c),
(123,600,o),
(180,600,o),
(200,600,c),
(200,620,o),
(200,683,o),
(200,700,c),
(242,699,o),
(243,700,o),
(263,700,c),
(277,700,o),
(313,700,o),
(327,700,c),
(350,700,o),
(383,700,o),
(403,700,c),
(410,700,o),
(427,700,o),
(437,700,c),
(450,700,o),
(460,700,o),
(470,700,c),
(477,700,o),
(483,700,o),
(500,700,c),
(500,667,o),
(500,660,o),
(500,637,c),
(500,623,o),
(500,613,o),
(500,600,c),
(482,600,o),
(467,600,o),
(457,600,c),
(430,600,o),
(430,600,o),
(407,600,c),
(380,600,o),
(330,600,o),
(297,600,c),
(294,600,o),
(220,600,o),
(200,600,c),
(199,573,o),
(200,433,o),
(200,400,c),
(200,394,o),
(200,323,o),
(200,300,c),
(253,297,o),
(473,300,o),
(500,300,c),
(500,273,o),
(500,147,o),
(500,100,c),
(483,100,o),
(420,100,o),
(400,100,c),
(400,83,o),
(400,33,o),
(400,0,c),
(370,0,o),
(313,0,o),
(300,0,c),
(247,0,l),
(233,0,o),
(200,0,o),
(180,0,c),
(133,0,o),
(107,0,o),
(100,0,c),
(100,26,o),
(100,87,o),
(100,100,c),
(123,100,o),
(173,100,o),
(200,100,c),
(204,100,o),
(273,100,o),
(300,100,c),
(320,100,o),
(383,100,o),
(400,100,c),
(401,125,o),
(400,187,o),
(400,200,c),
(393,200,o),
(340,200,o),
(323,200,c)
);
}
);
width = 600;
},
{
layerId = m002;
shapes = (
{
closed = 1;
nodes = (
(284,314,o),
(248,311,o),
(227,267,c),
(212,244,o),
(177,240,o),
(150,247,c),
(121,258,o),
(96,278,o),
(70,293,c),
(47,313,o),
(40,356,o),
(50,383,c),
(62,404,o),
(85,415,o),
(113,410,c),
(118,408,o),
(131,414,o),
(133,420,c),
(145,434,o),
(151,451,o),
(157,467,c),
(169,490,o),
(152,498,o),
(137,510,c),
(119,524,o),
(96,541,o),
(93,563,c),
(82,590,o),
(95,618,o),
(113,640,c),
(131,667,o),
(147,662,o),
(167,663,c),
(209,662,o),
(246,644,o),
(267,617,c),
(284,583,o),
(305,591,o),
(327,590,c),
(358,588,o),
(387,585,o),
(413,587,c),
(422,585,o),
(433,592,o),
(437,600,c),
(456,636,o),
(511,656,o),
(553,637,c),
(575,624,o),
(603,615,o),
(623,597,c),
(652,567,o),
(639,519,o),
(603,497,c),
(585,492,o),
(568,482,o),
(553,480,c),
(535,480,o),
(516,488,o),
(497,490,c),
(469,497,o),
(441,501,o),
(413,503,c),
(371,509,o),
(331,511,o),
(293,513,c),
(290,513,o),
(287,504,o),
(287,497,c),
(286,470,o),
(286,442,o),
(287,413,c),
(287,407,o),
(295,397,o),
(303,397,c),
(386,390,o),
(461,363,o),
(503,280,c),
(534,228,o),
(516,180,o),
(487,133,c),
(480,115,o),
(471,93,o),
(453,83,c),
(428,65,o),
(399,51,o),
(367,43,c),
(336,32,o),
(303,28,o),
(273,23,c),
(227,20,l),
(221,17,o),
(181,4,o),
(177,3,c),
(116,14,o),
(61,80,o),
(63,140,c),
(70,162,o),
(125,187,o),
(153,173,c),
(177,166,o),
(202,158,o),
(227,147,c),
(231,147,o),
(260,100,o),
(280,113,c),
(320,141,o),
(385,164,o),
(393,223,c),
(394,248,o),
(397,274,o),
(387,293,c),
(379,307,o),
(352,311,o),
(333,320,c)
);
}
);
width = 640;
}
);
unicode = 53;
},
{
glyphname = six;
lastChange = "2023-04-22 00:23:35 +0000";
layers = (
{
layerId = m01;
shapes = (
{
closed = 1;
nodes = (
(440,100,o),
(477,100,o),
(500,100,c),
(500,117,o),
(501,200,o),
(500,200,c),
(477,200,o),
(333,200,o),
(300,200,c),
(260,200,o),
(217,200,o),
(200,200,c),
(200,187,o),
(200,110,o),
(200,100,c),
(220,100,o),
(265,100,o),
(300,100,c)
);
},
{
closed = 1;
nodes = (
(299,700,o),
(300,700,c),
(317,700,o),
(325,700,o),
(330,700,c),
(390,700,o),
(453,701,o),
(500,700,c),
(500,681,o),
(500,638,o),
(500,600,c),
(437,601,o),
(260,600,o),
(200,600,c),
(200,570,o),
(200,340,o),
(200,300,c),
(210,300,o),
(490,300,o),
(500,300,c),
(500,287,o),
(500,223,o),
(500,200,c),
(513,200,o),
(573,200,o),
(600,200,c),
(600,170,o),
(600,104,o),
(600,100,c),
(577,100,o),
(530,100,o),
(500,100,c),
(500,80,o),
(500,57,o),
(500,0,c),
(457,0,o),
(220,0,o),
(200,0,c),
(200,20,o),
(200,77,o),
(200,100,c),
(173,100,o),
(120,100,o),
(100,100,c),
(103,130,o),
(100,510,o),
(100,600,c),
(120,600,o),
(167,600,o),
(200,600,c),
(200,627,o),
(200,673,o),
(200,700,c),
(220,700,o)
);
}
);
width = 600;
},
{
layerId = m002;
shapes = (
{
closed = 1;
nodes = (
(337,103,o),
(378,139,o),
(397,177,c),
(398,194,o),
(391,217,o),
(390,217,c),
(369,233,o),
(328,245,o),
(297,237,c),
(255,229,o),
(198,168,o),
(200,150,c),
(204,139,o),
(228,116,o),
(233,117,c),
(261,104,o),
(262,103,o),
(297,103,cs)
);
},
{
closed = 1;
nodes = (
(289,640,o),
(290,640,c),
(291,643,o),
(315,657,o),
(320,657,c),
(383,659,o),
(445,648,o),
(500,613,c),
(527,596,o),
(532,562,o),
(513,527,c),
(482,468,o),
(404,438,o),
(347,463,c),
(290,497,o),
(263,455,o),
(237,427,c),
(214,393,o),
(208,383,o),
(193,347,c),
(194,345,o),
(184,318,o),
(187,313,c),
(189,315,o),
(196,315,o),
(200,313,c),
(255,326,o),
(310,334,o),
(363,324,cs),
(393,319,o),
(422,308,o),
(450,290,c),
(493,268,o),
(536,238,o),
(553,180,c),
(563,160,o),
(541,95,o),
(520,73,c),
(458,10,o),
(383,3,o),
(307,13,c),
(241,25,o),
(181,48,o),
(130,90,c),
(60,141,o),
(27,213,o),
(37,297,c),
(38,340,o),
(66,375,o),
(87,413,c),
(146,504,o),
(188,543,o),
(247,600,c),
(265,623,o)
);
}
);
width = 600;
}
);
unicode = 54;
},
{
glyphname = seven;
lastChange = "2023-04-22 00:19:19 +0000";
layers = (
{
layerId = m01;
shapes = (
{
closed = 1;
nodes = (
(350,306,o),
(350,489,o),
(350,500,c),
(363,500,o),
(423,500,o),
(450,500,c),
(450,516,o),
(450,590,o),
(450,600,c),
(417,600,o),
(343,600,o),
(307,600,c),
(300,600,o),
(210,600,o),
(190,600,c),
(177,600,o),
(57,600,o),
(50,600,c),
(50,614,o),
(50,637,o),
(50,653,c),
(50,667,o),
(50,690,o),
(50,700,c),
(103,700,o),
(280,700,o),
(313,700,c),
(327,700,o),
(347,700,o),
(360,700,c),
(373,700,o),
(393,700,o),
(407,700,c),
(410,700,o),
(543,700,o),
(550,700,c),
(550,683,o),
(550,617,o),
(550,600,c),
(550,570,o),
(550,427,o),
(550,400,c),
(500,400,o),
(473,400,o),
(450,400,c),
(450,380,o),
(450,323,o),
(450,300,c),
(420,300,o),
(367,300,o),
(350,300,c),
(350,270,o),
(350,123,o),
(350,100,c),
(333,100,o),
(267,100,o),
(250,100,c),
(250,80,o),
(250,17,o),
(250,0,c),
(240,0,o),
(160,0,o),
(150,0,c),
(150,7,o),
(150,80,o),
(150,100,c),
(149,100,o),
(237,100,o),
(250,100,c),
(250,120,o),
(250,283,o),
(250,300,c),
(280,300,o),
(310,300,o),
(350,300,c)
);
}
);
width = 650;
},
{
layerId = m002;
shapes = (
{
closed = 1;
nodes = (
(307,390,o),
(376,490,o),
(380,503,c),
(374,498,o),
(344,504,o),
(337,503,c),
(304,510,o),
(270,516,o),
(233,523,c),
(227,521,o),
(217,508,o),
(210,503,c),
(171,452,o),
(100,454,o),
(67,503,c),
(50,523,o),
(33,542,o),
(30,567,c),
(16,602,o),
(29,636,o),
(53,663,c),
(62,672,o),
(75,678,o),
(90,683,c),
(142,687,o),
(192,674,o),
(237,637,c),
(255,615,o),
(278,603,o),
(303,593,c),
(314,592,o),
(329,609,o),
(343,617,c),
(346,620,o),
(357,627,o),
(367,627,c),
(435,651,o),
(477,649,o),
(537,630,c),
(575,606,o),
(583,571,o),
(557,540,c),
(528,505,o),
(495,471,o),
(463,440,c),
(400,368,o),
(359,284,o),
(343,183,c),
(340,163,o),
(340,153,o),
(357,143,c),
(391,112,o),
(377,39,o),
(373,33,cs),
(366,26,o),
(342,11,o),
(340,10,c),
(318,4,o),
(313,3,o),
(290,7,c),
(269,13,o),
(248,27,o),
(227,33,c),
(213,45,o),
(204,102,o),
(217,117,c),
(217,118,o),
(236,128,o),
(240,133,c),
(242,139,o),
(250,150,o),
(253,157,c),
(260,202,o),
(270,268,o),
(277,317,c)
);
}
);
width = 600;
}
);
unicode = 55;
},
{
glyphname = eight;
lastChange = "2023-04-22 00:10:38 +0000";
layers = (
{
layerId = m01;
shapes = (
{
closed = 1;
nodes = (
(166,300,o),
(407,300,o),
(450,300,c),
(450,327,o),
(450,440,o),
(450,457,c),
(450,477,o),
(450,493,o),
(450,507,c),
(451,521,o),
(450,547,o),
(450,557,c),
(450,570,o),
(450,583,o),
(450,600,c),
(415,598,o),
(250,600,o),
(210,600,c),
(193,600,o),
(163,600,o),
(150,600,c),
(150,567,o),
(150,483,o),
(150,457,c),
(150,343,o),
(150,317,o),
(150,300,c)
);
},
{
closed = 1;
nodes = (
(337,101,o),
(427,100,o),
(450,100,c),
(450,117,o),
(450,180,o),
(450,200,c),
(420,200,o),
(370,200,o),
(350,200,c),
(333,200,o),
(317,200,o),
(307,200,c),
(283,200,o),
(257,200,o),
(250,200,c),
(216,200,o),
(163,200,o),
(150,200,c),
(150,167,o),
(150,120,o),
(150,100,c),
(183,100,o),
(291,101,o),
(330,100,c)
);
},
{
closed = 1;
nodes = (
(50,160,o),
(50,200,c),
(73,200,o),
(123,200,o),
(150,200,c),
(150,223,o),
(150,270,o),
(150,300,c),
(127,300,o),
(70,300,o),
(50,300,c),
(50,340,o),
(50,567,o),
(50,600,c),
(67,600,o),
(117,600,o),
(150,600,c),
(150,630,o),
(150,670,o),
(150,700,c),
(213,700,o),
(377,700,o),
(450,700,c),
(450,673,o),
(450,647,o),
(450,600,c),
(480,600,o),
(523,600,o),
(550,600,c),
(550,550,o),
(550,340,o),
(550,300,c),
(523,300,o),
(467,300,o),
(450,300,c),
(450,289,o),
(450,237,o),
(450,200,c),
(487,200,o),
(523,200,o),
(550,200,c),
(550,183,o),
(550,133,o),
(550,100,c),
(513,100,o),
(470,100,o),
(450,100,c),
(450,47,o),
(450,17,o),
(450,0,c),
(423,0,o),
(190,0,o),
(150,0,c),
(150,17,o),
(150,83,o),
(150,100,c),
(107,100,o),
(67,100,o),
(50,100,c),
(50,133,o)
);
}
);
width = 600;
},
{
layerId = m002;
shapes = (
{
closed = 1;
nodes = (
(286,386,o),
(316,405,o),
(340,427,cs),
(353,436,o),
(375,470,o),
(377,493,cs),
(375,512,o),
(378,519,o),
(380,537,c),
(381,551,o),
(371,567,o),
(367,580,c),
(360,585,o),
(342,605,o),
(327,607,cs),
(292,605,o),
(275,592,o),
(243,580,cs),
(234,577,o),
(216,561,o),
(213,557,cs),
(202,533,o),
(195,471,o),
(207,437,c),
(209,419,o),
(228,387,o),
(270,387,c)
);
},
{
closed = 1;
nodes = (
(337,68,o),
(361,74,o),
(380,90,c),
(389,96,o),
(402,119,o),
(407,137,cs),
(411,158,o),
(416,196,o),
(390,217,cs),
(359,235,o),
(350,245,o),
(320,267,cs),
(312,273,o),
(287,277,o),
(280,277,cs),
(239,277,o),
(216,249,o),
(203,220,c),
(176,181,o),
(184,126,o),
(217,100,c),
(242,77,o),
(284,68,o),
(330,67,cs)
);
},
{
closed = 1;
nodes = (
(75,205,o),
(77,227,c),
(105,300,o),
(145,304,o),
(167,327,c),
(181,363,o),
(119,380,o),
(110,433,c),
(98,461,o),
(74,462,o),
(53,480,c),
(43,492,o),
(43,518,o),
(43,523,c),
(53,584,o),
(73,603,o),
(83,613,c),
(106,625,o),
(131,625,o),
(157,637,c),
(219,671,o),
(294,693,o),
(367,683,c),
(427,671,o),
(477,650,o),
(510,590,cs),
(516,577,o),
(525,540,o),
(527,513,c),
(522,519,o),
(518,467,o),
(500,427,cs),
(488,394,o),
(478,362,o),
(457,347,cs),
(449,338,o),
(401,315,o),
(387,307,c),
(391,305,o),
(467,271,o),
(500,233,c),
(511,218,o),
(528,203,o),
(542,183,cs),
(552,169,o),
(560,152,o),
(563,130,c),
(557,85,o),
(537,55,o),
(513,40,c),
(482,17,o),
(449,-1,o),
(417,-7,c),
(365,-9,o),
(320,-10,o),
(270,-3,c),
(179,3,o),
(119,31,o),
(77,123,c),
(68,164,o)
);
}
);
width = 600;
}
);
unicode = 56;
},
{
glyphname = nine;
lastChange = "2023-04-22 00:20:09 +0000";
layers = (
{
layerId = m01;
shapes = (
{
closed = 1;
nodes = (
(180,300,o),
(286,300,o),
(320,300,c),
(347,300,o),
(377,300,o),
(397,300,c),
(450,300,l),
(450,353,o),
(450,473,o),
(450,500,c),
(450,530,o),
(450,580,o),
(450,600,c),
(413,597,o),
(270,600,o),
(250,600,c),
(230,600,o),
(173,600,o),
(150,600,c),
(147,550,o),
(150,323,o),
(150,300,c)
);
},
{
closed = 1;
nodes = (
(450,700,l),
(450,670,o),
(450,623,o),
(450,600,c),
(470,600,o),
(527,600,o),
(550,600,c),
(550,577,o),
(550,530,o),
(550,510,c),
(550,470,o),
(551,497,o),
(550,453,c),
(550,430,o),
(550,397,o),
(550,357,c),
(550,280,o),
(550,147,o),
(550,100,c),
(520,100,o),
(483,100,o),
(450,100,c),
(450,80,o),
(450,33,o),
(450,0,c),
(434,0,o),
(257,0,o),
(233,0,c),
(203,0,o),
(180,0,o),
(150,0,c),
(150,13,o),
(150,27,o),
(150,40,c),
(150,60,o),
(150,80,o),
(150,100,c),
(193,100,o),
(293,100,o),
(350,100,c),
(364,99,o),
(413,100,o),
(450,100,c),
(450,123,o),
(450,180,o),
(450,200,c),
(407,200,o),
(166,200,o),
(150,200,c),
(150,217,o),
(150,277,o),
(150,300,c),
(81,300,o),
(67,300,o),
(50,300,c),
(50,340,o),
(50,473,o),
(50,500,c),
(50,520,o),
(50,573,o),
(50,600,c),
(73,600,o),
(127,600,o),
(150,600,c),
(150,623,o),
(150,670,o),
(150,700,c),
(170,700,o),
(312,699,o),
(330,700,c)
);
}
);
width = 650;
},
{
layerId = m002;
shapes = (
{
closed = 1;
nodes = (
(262,382,o),
(288,390,o),
(317,400,c),
(325,400,o),
(338,412,o),
(343,417,cs),
(363,440,ls),
(407,491,o),
(388,513,o),
(343,543,c),
(332,552,o),
(315,565,o),
(310,560,c),
(276,550,o),
(247,537,o),
(227,517,c),
(197,495,o),
(170,469,o),
(163,440,c),
(149,404,o),
(186,379,o),
(240,373,c)
);
},
{
closed = 1;
nodes = (
(363,703,ls),
(364,703,o),
(387,701,o),
(413,693,c),
(437,684,o),
(460,669,o),
(483,653,c),
(494,646,o),
(512,633,o),
(523,607,cs),
(540,561,o),
(531,514,o),
(530,470,c),
(523,428,o),
(521,385,o),
(517,343,c),
(495,250,o),
(468,159,o),
(410,83,c),
(387,46,o),
(361,22,o),
(330,7,c),
(290,-10,o),
(273,-13,o),
(217,-13,c),
(195,-4,o),
(147,-5,o),
(133,7,c),
(118,20,o),
(96,37,o),
(87,53,cs),
(68,83,o),
(65,106,o),
(83,133,cs),
(109,176,o),
(140,186,o),
(163,187,c),
(197,190,o),
(244,119,o),
(277,123,c),
(291,122,o),
(316,149,o),
(327,157,c),
(339,177,o),
(394,260,o),
(407,283,c),
(420,304,o),
(359,283,o),
(343,283,c),
(308,285,o),
(274,285,o),
(243,287,c),
(174,287,o),
(71,347,o),
(60,407,c),
(53,427,o),
(47,448,o),
(47,467,cs),
(47,477,o),
(51,507,o),
(53,510,c),
(60,535,o),
(61,565,o),
(80,587,c),
(118,639,o),
(161,668,o),
(227,690,c),
(246,695,o),
(262,699,o),
(280,700,cs)
);
}
);
width = 600;
}
);
unicode = 57;
},
{
export = 0;
glyphname = pixel;
lastChange = "2023-03-29 05:02:00 +0000";
layers = (
{
layerId = m01;
shapes = (
{
closed = 1;
nodes = (
(0,0,l),
(100,0,l),
(100,100,l),
(0,100,l)
);
}
